<svg width="32" height="32" viewBox="0 0 32 32" fill="none" xmlns="http://www.w3.org/2000/svg">
<path d="M21.3511 2.88038C21.8561 2.91196 22.2457 3.34479 22.2323 3.85925V5.23911C26.2438 5.6283 28.296 7.8455 28.296 11.8318V22.8588C28.296 27.2932 25.7685 29.5458 20.7946 29.5458H11.7975C6.82356 29.5458 4.29602 27.2932 4.29602 22.8588V11.8318C4.29602 9.17819 5.20037 7.27941 7.05544 6.17081L7.18556 6.09665C7.45448 5.97113 7.76988 5.98263 8.03204 6.13483C8.33789 6.3124 8.51851 6.65083 8.49828 7.00846C8.47804 7.36609 8.26046 7.68121 7.9366 7.82192C6.70761 8.55312 6.1279 9.82684 6.1279 11.8318V12.1856H23.0438C23.5497 12.1856 23.9598 12.6027 23.9598 13.1173C23.9598 13.6318 23.5497 14.049 23.0438 14.049H6.1279V22.8588C6.1279 26.2436 7.77428 27.647 11.7975 27.6706H20.7946C24.7598 27.6706 26.4525 26.2318 26.4525 22.847V11.82C26.4525 8.87155 25.1656 7.44452 22.2323 7.1025V7.99882C22.1646 8.47657 21.7534 8.82533 21.2792 8.80713C20.805 8.78893 20.4208 8.40963 20.3888 7.92806V3.7767L20.4057 3.62923C20.4435 3.43598 20.5408 3.25848 20.6855 3.1237C20.8664 2.95523 21.1062 2.86758 21.3511 2.88038ZM21.8787 21.8085L22.0263 21.818C22.2795 21.8497 22.5169 21.9658 22.7002 22.1504C22.9201 22.3719 23.0438 22.6737 23.0438 22.9885C23.0438 23.6399 22.5248 24.1679 21.8844 24.1679C21.2441 24.1679 20.725 23.6399 20.725 22.9885C20.725 22.3372 21.2441 21.8092 21.8844 21.8092L21.8787 21.8085ZM16.3192 21.8092L16.4646 21.8184C17.0363 21.8911 17.4786 22.3873 17.4786 22.9885C17.4786 23.6399 16.9595 24.1679 16.3192 24.1679C15.6789 24.1679 15.1598 23.6399 15.1598 22.9885C15.1598 22.3372 15.6789 21.8092 16.3192 21.8092ZM10.76 21.8085L10.9075 21.818C11.1606 21.8497 11.398 21.9658 11.5813 22.1504C11.8013 22.3719 11.925 22.6737 11.925 22.9885C11.925 23.6399 11.4059 24.1679 10.7656 24.1679C10.1253 24.1679 9.60617 23.6399 9.60617 22.9885C9.60617 22.3372 10.1253 21.8092 10.7656 21.8092L10.76 21.8085ZM21.8787 17.0325L22.0263 17.0416C22.2795 17.0733 22.5169 17.1894 22.7002 17.374C22.9201 17.5955 23.0438 17.8973 23.0438 18.2121C23.0438 18.8635 22.5248 19.3915 21.8844 19.3915C21.2441 19.3915 20.725 18.8635 20.725 18.2121C20.725 17.5608 21.2441 17.0328 21.8844 17.0328L21.8787 17.0325ZM16.3192 17.0328L16.4646 17.0419C17.0363 17.1147 17.4786 17.6109 17.4786 18.2121C17.4786 18.8635 16.9595 19.3915 16.3192 19.3915C15.6789 19.3915 15.1598 18.8635 15.1598 18.2121C15.1598 17.5608 15.6789 17.0328 16.3192 17.0328ZM10.76 17.0325L10.9075 17.0416C11.1606 17.0733 11.398 17.1894 11.5813 17.374C11.8013 17.5955 11.925 17.8973 11.925 18.2121C11.925 18.8635 11.4059 19.3915 10.7656 19.3915C10.1253 19.3915 9.60617 18.8635 9.60617 18.2121C9.60617 17.5608 10.1253 17.0328 10.7656 17.0328L10.76 17.0325ZM11.2815 3.02108C11.7537 3.02108 12.1506 3.38193 12.2033 3.85925V5.14476H17.4438C17.9497 5.14476 18.3598 5.56189 18.3598 6.07646C18.3598 6.59102 17.9497 7.00816 17.4438 7.00816H12.1801V7.93985C12.1801 8.18901 12.082 8.4278 11.9077 8.60287C11.7334 8.77794 11.4975 8.87471 11.2525 8.87155L11.1186 8.85817C10.6822 8.78148 10.3539 8.39176 10.3597 7.92806V3.85925L10.3856 3.71979C10.4926 3.31337 10.8565 3.02108 11.2815 3.02108Z" fill="white"/>
</svg>
