<svg width="32" height="32" viewBox="0 0 32 32" fill="none" xmlns="http://www.w3.org/2000/svg">
<path d="M24.8226 17.0021C26.9384 17.0086 28.6538 18.7544 28.6667 20.9143V24.7425C28.6539 26.9043 26.9403 28.6536 24.8226 28.6667H21.0726C18.9568 28.6535 17.2467 26.9024 17.2403 24.7425V20.9143C17.2403 18.7536 18.956 17.0021 21.0726 17.0021H24.8226ZM8.71744 17.0021C9.11119 16.9591 9.49445 17.1493 9.70451 17.492C9.91457 17.8347 9.91457 18.2697 9.70451 18.6124C9.49445 18.9551 9.11119 19.1453 8.71744 19.1022H7.17746C6.19518 19.1022 5.39707 19.9116 5.39061 20.9143V24.6945C5.41558 25.6892 6.20294 26.4877 7.17746 26.5066H10.951C11.4238 26.5098 11.8784 26.3203 12.2138 25.9801C12.5492 25.6399 12.7379 25.1772 12.7379 24.6945V19.0182L12.7218 18.877C12.7041 18.5015 12.8842 18.1398 13.2012 17.9346C13.5578 17.7038 14.0161 17.7174 14.3589 17.9689C14.7018 18.2205 14.8605 18.6596 14.7598 19.0782V24.7305C14.7598 26.8978 13.0388 28.6547 10.9157 28.6547H7.17746C5.07278 28.6101 3.37704 26.8791 3.33337 24.7305V20.9143C3.33337 19.8747 3.73874 18.8777 4.45999 18.1437C5.18124 17.4097 6.15903 16.9989 7.17746 17.0021H8.71744ZM24.8226 19.1022H21.0726C20.0922 19.1022 19.2974 19.9135 19.2974 20.9143V24.7425C19.2943 25.2241 19.4803 25.6869 19.8139 26.0274C20.1475 26.3679 20.6008 26.5578 21.0726 26.5546H24.8226C25.2944 26.5578 25.7477 26.3679 26.0813 26.0274C26.4149 25.6869 26.6009 25.2241 26.5978 24.7425V20.9143C26.5978 20.4337 26.4107 19.9728 26.0778 19.633C25.7449 19.2931 25.2934 19.1022 24.8226 19.1022ZM24.8226 3.33337C26.9227 3.38428 28.6115 5.11358 28.655 7.25758V11.0738C28.6675 12.1114 28.2757 13.1116 27.5658 13.8543C26.8559 14.597 25.8861 15.0213 24.8696 15.034H23.3179C22.7922 14.9765 22.3935 14.5237 22.3935 13.9839C22.3935 13.4442 22.7922 12.9913 23.3179 12.9339H24.8226C25.2986 12.9307 25.7536 12.7338 26.0869 12.3869C26.4201 12.04 26.604 11.5716 26.5977 11.0858V7.25758C26.5851 6.26219 25.7977 5.45841 24.8226 5.44548H21.0726C20.0922 5.44548 19.2975 6.25679 19.2975 7.25758V12.9819L19.2835 13.1243C19.1993 13.6355 18.761 14.0202 18.2395 14.0139C17.9661 14.0077 17.7066 13.89 17.5188 13.687C17.3311 13.4841 17.2308 13.2128 17.2403 12.9339V7.25758C17.2371 6.21792 17.6395 5.21975 18.3586 4.48347C19.0776 3.74719 20.0541 3.33337 21.0726 3.33337H24.8226ZM10.9275 3.33337C13.0478 3.33996 14.7651 5.09304 14.7716 7.25758V11.0858C14.7716 12.1254 14.3662 13.1224 13.645 13.8564C12.9237 14.5904 11.9459 15.0012 10.9275 14.998H7.17746C5.06167 14.9914 3.34627 13.2456 3.33337 11.0858V7.25758C3.34621 5.09575 5.05977 3.34648 7.17746 3.33337H10.9275ZM10.9275 5.44548H7.17746C6.70059 5.43581 6.23998 5.62245 5.89941 5.96334C5.55885 6.30422 5.367 6.77068 5.36709 7.25758V11.0858C5.3574 11.5789 5.54502 12.0547 5.88665 12.4035C6.22828 12.7522 6.69441 12.9438 7.17746 12.9339H10.9275C11.4035 12.9307 11.8585 12.7338 12.1918 12.3869C12.525 12.04 12.7089 11.5716 12.7026 11.0858V7.25758C12.6962 6.25951 11.9052 5.45203 10.9275 5.44548Z" fill="white"/>
</svg>
