<svg width="237" height="50" viewBox="0 0 237 50" fill="none" xmlns="http://www.w3.org/2000/svg">
<rect width="237" height="50" rx="4" fill="#1976D2"/>
<rect width="50" height="50" rx="4" fill="white"/>
<path d="M34.8055 23.0415H34V23H25V27H30.6515C29.827 29.3285 27.6115 31 25 31C21.6865 31 19 28.3135 19 25C19 21.6865 21.6865 19 25 19C26.5295 19 27.921 19.577 28.9805 20.5195L31.809 17.691C30.023 16.0265 27.634 15 25 15C19.4775 15 15 19.4775 15 25C15 30.5225 19.4775 35 25 35C30.5225 35 35 30.5225 35 25C35 24.3295 34.931 23.675 34.8055 23.0415Z" fill="#FFC107"/>
<path d="M16.1528 20.3455L19.4383 22.755C20.3273 20.554 22.4803 19 24.9998 19C26.5293 19 27.9208 19.577 28.9803 20.5195L31.8088 17.691C30.0228 16.0265 27.6338 15 24.9998 15C21.1588 15 17.8278 17.1685 16.1528 20.3455Z" fill="#FF3D00"/>
<path d="M25.0002 35C27.5832 35 29.9302 34.0115 31.7047 32.404L28.6097 29.785C27.5719 30.5742 26.3039 31.001 25.0002 31C22.3992 31 20.1907 29.3415 19.3587 27.027L16.0977 29.5395C17.7527 32.778 21.1137 35 25.0002 35Z" fill="#4CAF50"/>
<path d="M34.8055 23.0415H34V23H25V27H30.6515C30.2571 28.1082 29.5467 29.0766 28.608 29.7855L28.6095 29.7845L31.7045 32.4035C31.4855 32.6025 35 30 35 25C35 24.3295 34.931 23.675 34.8055 23.0415Z" fill="#1976D2"/>
<path d="M78.467 23.236C78.401 23.1627 78.2617 23.0673 78.049 22.95C77.8363 22.8253 77.5797 22.7153 77.279 22.62C76.9857 22.5173 76.6813 22.466 76.366 22.466C75.5373 22.466 75.123 22.7593 75.123 23.346C75.123 23.5587 75.189 23.7273 75.321 23.852C75.453 23.9767 75.651 24.083 75.915 24.171C76.179 24.259 76.509 24.3543 76.905 24.457C77.4183 24.589 77.862 24.743 78.236 24.919C78.6173 25.095 78.907 25.3297 79.105 25.623C79.3103 25.909 79.413 26.2903 79.413 26.767C79.413 27.3243 79.2773 27.7753 79.006 28.12C78.742 28.4573 78.39 28.703 77.95 28.857C77.51 29.011 77.0333 29.088 76.52 29.088C75.9333 29.088 75.3503 29 74.771 28.824C74.199 28.6407 73.6893 28.3913 73.242 28.076L73.913 26.767C73.979 26.833 74.0963 26.921 74.265 27.031C74.4337 27.1337 74.639 27.24 74.881 27.35C75.123 27.4527 75.387 27.5407 75.673 27.614C75.959 27.6873 76.2487 27.724 76.542 27.724C77.378 27.724 77.796 27.4563 77.796 26.921C77.796 26.6937 77.7117 26.5103 77.543 26.371C77.3743 26.2317 77.136 26.1143 76.828 26.019C76.5273 25.9237 76.1753 25.8173 75.772 25.7C75.2733 25.5607 74.859 25.4067 74.529 25.238C74.2063 25.062 73.9643 24.8457 73.803 24.589C73.6417 24.325 73.561 23.9913 73.561 23.588C73.561 23.0527 73.6857 22.6053 73.935 22.246C74.1917 21.8793 74.5363 21.6043 74.969 21.421C75.4017 21.2303 75.882 21.135 76.41 21.135C76.9527 21.135 77.4587 21.223 77.928 21.399C78.3973 21.575 78.8007 21.7767 79.138 22.004L78.467 23.236ZM81.5601 29V21.19H83.0781V29H81.5601ZM88.9526 29.055C88.4392 29.055 87.9589 28.9523 87.5116 28.747C87.0642 28.5417 86.6682 28.2593 86.3236 27.9C85.9862 27.5333 85.7222 27.108 85.5316 26.624C85.3409 26.14 85.2456 25.6157 85.2456 25.051C85.2456 24.5157 85.3409 24.0133 85.5316 23.544C85.7222 23.0673 85.9899 22.6493 86.3346 22.29C86.6792 21.9307 87.0826 21.6483 87.5446 21.443C88.0066 21.2377 88.5089 21.135 89.0516 21.135C89.7776 21.135 90.4046 21.2927 90.9326 21.608C91.4606 21.916 91.8566 22.3267 92.1206 22.84L90.9876 23.676C90.7896 23.2947 90.5109 23.0013 90.1516 22.796C89.7996 22.5833 89.4146 22.477 88.9966 22.477C88.5566 22.477 88.1679 22.598 87.8306 22.84C87.5006 23.082 87.2402 23.401 87.0496 23.797C86.8662 24.193 86.7746 24.6257 86.7746 25.095C86.7746 25.5863 86.8736 26.03 87.0716 26.426C87.2696 26.822 87.5409 27.1373 87.8856 27.372C88.2376 27.5993 88.6372 27.713 89.0846 27.713C89.8399 27.713 90.5219 27.3573 91.1306 26.646V26.096H89.5576V24.985H92.3846V29H91.1306V28.12C90.4999 28.7433 89.7739 29.055 88.9526 29.055ZM96.1963 23.984V29H94.6783V21.19H95.8883L99.9253 26.338V21.201H101.443V29H100.178L96.1963 23.984ZM107.71 29V21.19H109.228V29H107.71ZM113.376 23.984V29H111.858V21.19H113.068L117.105 26.338V21.201H118.623V29H117.358L113.376 23.984ZM127.176 21.212H128.584L129.475 23.797L130.377 21.212H131.774L130.432 24.765L131.422 27.251L133.633 21.19H135.283L132.159 29H130.85L129.475 25.722L128.111 29H126.802L123.689 21.19H125.317L127.539 27.251L128.507 24.765L127.176 21.212ZM137.084 29V21.19H138.602V29H137.084ZM147.072 22.521H144.575V29H143.068V22.521H140.571V21.19H147.072V22.521ZM155.609 21.19V29H154.102V25.667H150.56V29H149.042V21.19H150.56V24.347H154.102V21.19H155.609ZM165.125 29.055C164.612 29.055 164.132 28.9523 163.684 28.747C163.237 28.5417 162.841 28.2593 162.496 27.9C162.159 27.5333 161.895 27.108 161.704 26.624C161.514 26.14 161.418 25.6157 161.418 25.051C161.418 24.5157 161.514 24.0133 161.704 23.544C161.895 23.0673 162.163 22.6493 162.507 22.29C162.852 21.9307 163.255 21.6483 163.717 21.443C164.179 21.2377 164.682 21.135 165.224 21.135C165.95 21.135 166.577 21.2927 167.105 21.608C167.633 21.916 168.029 22.3267 168.293 22.84L167.16 23.676C166.962 23.2947 166.684 23.0013 166.324 22.796C165.972 22.5833 165.587 22.477 165.169 22.477C164.729 22.477 164.341 22.598 164.003 22.84C163.673 23.082 163.413 23.401 163.222 23.797C163.039 24.193 162.947 24.6257 162.947 25.095C162.947 25.5863 163.046 26.03 163.244 26.426C163.442 26.822 163.714 27.1373 164.058 27.372C164.41 27.5993 164.81 27.713 165.257 27.713C166.013 27.713 166.695 27.3573 167.303 26.646V26.096H165.73V24.985H168.557V29H167.303V28.12C166.673 28.7433 165.947 29.055 165.125 29.055ZM174.184 29.055C173.612 29.055 173.091 28.945 172.622 28.725C172.16 28.505 171.76 28.208 171.423 27.834C171.093 27.4527 170.836 27.0273 170.653 26.558C170.47 26.0813 170.378 25.5937 170.378 25.095C170.378 24.5743 170.473 24.0793 170.664 23.61C170.855 23.1333 171.122 22.7117 171.467 22.345C171.812 21.971 172.215 21.6777 172.677 21.465C173.146 21.245 173.66 21.135 174.217 21.135C174.782 21.135 175.295 21.2487 175.757 21.476C176.226 21.7033 176.626 22.0077 176.956 22.389C177.293 22.7703 177.55 23.1993 177.726 23.676C177.909 24.1453 178.001 24.6257 178.001 25.117C178.001 25.6303 177.906 26.1253 177.715 26.602C177.524 27.0713 177.257 27.493 176.912 27.867C176.575 28.2337 176.171 28.5233 175.702 28.736C175.24 28.9487 174.734 29.055 174.184 29.055ZM171.918 25.095C171.918 25.5497 172.006 25.975 172.182 26.371C172.365 26.767 172.626 27.0897 172.963 27.339C173.308 27.5883 173.718 27.713 174.195 27.713C174.686 27.713 175.101 27.5847 175.438 27.328C175.775 27.0713 176.032 26.7413 176.208 26.338C176.384 25.9347 176.472 25.5203 176.472 25.095C176.472 24.6403 176.38 24.215 176.197 23.819C176.014 23.423 175.75 23.104 175.405 22.862C175.068 22.6127 174.664 22.488 174.195 22.488C173.704 22.488 173.289 22.6163 172.952 22.873C172.615 23.1297 172.358 23.4597 172.182 23.863C172.006 24.259 171.918 24.6697 171.918 25.095ZM183.499 29.055C182.927 29.055 182.406 28.945 181.937 28.725C181.475 28.505 181.075 28.208 180.738 27.834C180.408 27.4527 180.151 27.0273 179.968 26.558C179.784 26.0813 179.693 25.5937 179.693 25.095C179.693 24.5743 179.788 24.0793 179.979 23.61C180.169 23.1333 180.437 22.7117 180.782 22.345C181.126 21.971 181.53 21.6777 181.992 21.465C182.461 21.245 182.974 21.135 183.532 21.135C184.096 21.135 184.61 21.2487 185.072 21.476C185.541 21.7033 185.941 22.0077 186.271 22.389C186.608 22.7703 186.865 23.1993 187.041 23.676C187.224 24.1453 187.316 24.6257 187.316 25.117C187.316 25.6303 187.22 26.1253 187.03 26.602C186.839 27.0713 186.571 27.493 186.227 27.867C185.889 28.2337 185.486 28.5233 185.017 28.736C184.555 28.9487 184.049 29.055 183.499 29.055ZM181.233 25.095C181.233 25.5497 181.321 25.975 181.497 26.371C181.68 26.767 181.94 27.0897 182.278 27.339C182.622 27.5883 183.033 27.713 183.51 27.713C184.001 27.713 184.415 27.5847 184.753 27.328C185.09 27.0713 185.347 26.7413 185.523 26.338C185.699 25.9347 185.787 25.5203 185.787 25.095C185.787 24.6403 185.695 24.215 185.512 23.819C185.328 23.423 185.064 23.104 184.72 22.862C184.382 22.6127 183.979 22.488 183.51 22.488C183.018 22.488 182.604 22.6163 182.267 22.873C181.929 23.1297 181.673 23.4597 181.497 23.863C181.321 24.259 181.233 24.6697 181.233 25.095ZM192.725 29.055C192.212 29.055 191.731 28.9523 191.284 28.747C190.837 28.5417 190.441 28.2593 190.096 27.9C189.759 27.5333 189.495 27.108 189.304 26.624C189.113 26.14 189.018 25.6157 189.018 25.051C189.018 24.5157 189.113 24.0133 189.304 23.544C189.495 23.0673 189.762 22.6493 190.107 22.29C190.452 21.9307 190.855 21.6483 191.317 21.443C191.779 21.2377 192.281 21.135 192.824 21.135C193.55 21.135 194.177 21.2927 194.705 21.608C195.233 21.916 195.629 22.3267 195.893 22.84L194.76 23.676C194.562 23.2947 194.283 23.0013 193.924 22.796C193.572 22.5833 193.187 22.477 192.769 22.477C192.329 22.477 191.94 22.598 191.603 22.84C191.273 23.082 191.013 23.401 190.822 23.797C190.639 24.193 190.547 24.6257 190.547 25.095C190.547 25.5863 190.646 26.03 190.844 26.426C191.042 26.822 191.313 27.1373 191.658 27.372C192.01 27.5993 192.41 27.713 192.857 27.713C193.612 27.713 194.294 27.3573 194.903 26.646V26.096H193.33V24.985H196.157V29H194.903V28.12C194.272 28.7433 193.546 29.055 192.725 29.055ZM198.451 29V21.19H199.969V27.669H203.951V29H198.451ZM211.298 27.669V29H205.875V21.19H211.199V22.521H207.393V24.402H210.682V25.634H207.393V27.669H211.298Z" fill="white"/>
</svg>
