<svg width="208" height="128" viewBox="0 0 208 128" fill="none" xmlns="http://www.w3.org/2000/svg">
<path d="M4.648 74.8H13.72V106.608H33.376V114H4.648V74.8ZM50.309 83.424C54.9757 83.424 58.5597 84.544 61.061 86.784C63.5623 88.9867 64.813 92.328 64.813 96.808V114H56.637V110.248C54.9943 113.048 51.933 114.448 47.453 114.448C45.1383 114.448 43.1223 114.056 41.405 113.272C39.725 112.488 38.437 111.405 37.541 110.024C36.645 108.643 36.197 107.075 36.197 105.32C36.197 102.52 37.2423 100.317 39.333 98.712C41.461 97.1067 44.7277 96.304 49.133 96.304H56.077C56.077 94.4 55.4983 92.944 54.341 91.936C53.1837 90.8907 51.4477 90.368 49.133 90.368C47.5277 90.368 45.941 90.6293 44.373 91.152C42.8423 91.6373 41.5357 92.3093 40.453 93.168L37.317 87.064C38.9597 85.9067 40.9197 85.0107 43.197 84.376C45.5117 83.7413 47.8823 83.424 50.309 83.424ZM49.637 108.568C51.1303 108.568 52.4557 108.232 53.613 107.56C54.7703 106.851 55.5917 105.824 56.077 104.48V101.4H50.085C46.501 101.4 44.709 102.576 44.709 104.928C44.709 106.048 45.1383 106.944 45.997 107.616C46.893 108.251 48.1063 108.568 49.637 108.568ZM97.5275 107.28V114H70.6475V108.736L85.9915 90.592H71.0395V83.872H97.0235V89.136L81.6795 107.28H97.5275ZM132.483 83.872L118.875 115.848C117.494 119.32 115.776 121.765 113.723 123.184C111.707 124.603 109.262 125.312 106.387 125.312C104.819 125.312 103.27 125.069 101.739 124.584C100.208 124.099 98.9575 123.427 97.9869 122.568L101.179 116.352C101.851 116.949 102.616 117.416 103.475 117.752C104.371 118.088 105.248 118.256 106.107 118.256C107.302 118.256 108.272 117.957 109.019 117.36C109.766 116.8 110.438 115.848 111.035 114.504L111.147 114.224L98.0989 83.872H107.115L115.571 104.312L124.083 83.872H132.483ZM136.664 74.8H154.472C158.728 74.8 162.48 75.6213 165.728 77.264C169.013 78.8693 171.552 81.1467 173.344 84.096C175.173 87.0453 176.088 90.48 176.088 94.4C176.088 98.32 175.173 101.755 173.344 104.704C171.552 107.653 169.013 109.949 165.728 111.592C162.48 113.197 158.728 114 154.472 114H136.664V74.8ZM154.024 106.552C157.944 106.552 161.061 105.469 163.376 103.304C165.728 101.101 166.904 98.1333 166.904 94.4C166.904 90.6667 165.728 87.7173 163.376 85.552C161.061 83.3493 157.944 82.248 154.024 82.248H145.736V106.552H154.024Z" fill="white"/>
<path d="M40.166 54.6117L38.6868 57.0828L28.8024 51.1659L29.9611 49.2302L39.5973 45.9358L34.0991 42.6445L35.5783 40.1734L45.1333 45.893L43.9746 47.8287L34.3383 51.1232L40.166 54.6117Z" fill="white"/>
<path d="M35.6351 35.1149L34.661 37.8251L23.82 33.9283L24.5831 31.8053L33.4018 26.7121L27.3716 24.5445L28.3458 21.8343L38.8253 25.6012L38.0622 27.7242L29.2435 32.8174L35.6351 35.1149Z" fill="white"/>
<path d="M186.641 100.566C186.633 100.544 186.63 100.52 186.624 100.497C186.617 100.49 186.61 100.484 186.607 100.471C186.539 100.171 186.453 99.8748 186.419 99.5683C186.412 99.5083 186.397 99.4514 186.364 99.4C186.28 99.271 186.213 99.269 186.137 99.4034C186.079 99.5039 186.021 99.523 185.936 99.4388C185.9 99.4028 185.836 99.3716 185.804 99.4021C185.721 99.4812 185.623 99.4664 185.528 99.4716C185.557 99.5747 185.566 99.6815 185.55 99.7859C185.525 99.9415 185.583 100.075 185.635 100.211C185.679 100.324 185.774 100.355 185.888 100.341C185.94 100.335 186.006 100.289 186.027 100.381C186.097 100.262 186.194 100.3 186.273 100.354C186.371 100.421 186.463 100.495 186.573 100.546C186.628 100.572 186.676 100.618 186.681 100.691C186.682 100.714 186.687 100.73 186.695 100.743C186.695 100.741 186.696 100.739 186.697 100.737C186.69 100.721 186.684 100.702 186.682 100.677C186.678 100.639 186.659 100.601 186.641 100.566Z" fill="#E5E5E5"/>
<path d="M186.03 100.385C186.029 100.383 186.028 100.383 186.027 100.38L186.027 100.38C186.029 100.381 186.03 100.386 186.03 100.385Z" fill="#E5E5E5"/>
<path d="M188.954 98.8797C188.917 98.8813 188.886 98.874 188.859 98.856C188.888 98.8854 188.921 98.8893 188.954 98.8797Z" fill="#E5E5E5"/>
<path d="M188.363 98.2556C188.365 98.2693 188.372 98.2817 188.378 98.2941C188.381 98.2592 188.377 98.222 188.363 98.1804C188.363 98.2055 188.358 98.2293 188.363 98.2556Z" fill="#E5E5E5"/>
<path d="M189.225 97.1822C189.259 97.1737 189.289 97.1636 189.312 97.1551C189.291 97.1636 189.257 97.1693 189.225 97.1822Z" fill="#E5E5E5"/>
<path d="M193.527 92.8792C193.464 92.8634 193.411 92.8373 193.37 92.7867C193.438 92.8386 193.43 92.8846 193.365 92.9384C193.315 92.98 193.265 93.0361 193.304 93.1066C193.349 93.1865 193.431 93.185 193.507 93.1627C193.577 93.1421 193.69 93.1348 193.691 93.0599C193.691 92.9834 193.62 92.9025 193.527 92.8792Z" fill="#E5E5E5"/>
<path d="M188.645 97.8726C188.742 97.8672 188.775 97.8411 188.775 97.754C188.82 97.6485 188.885 97.5513 188.9 97.4342C189.002 97.3862 189.103 97.342 189.162 97.2319C189.176 97.2063 189.2 97.1926 189.225 97.1825C189.198 97.189 189.17 97.1952 189.14 97.1967C189.054 97.2014 189.017 97.1251 188.967 97.0771C188.924 97.0355 188.872 97.0184 188.822 97.0137C188.757 97.0081 188.72 96.977 188.705 96.9225C188.689 96.8638 188.719 96.8209 188.772 96.7881C188.836 96.7493 188.912 96.7031 188.888 96.6157C188.877 96.5746 188.825 96.5444 188.857 96.4899C188.841 96.5656 188.791 96.5803 188.722 96.5728C188.673 96.5674 188.647 96.5322 188.612 96.5082C188.493 96.4276 188.32 96.4534 188.23 96.5635C188.043 96.7902 187.886 96.8408 187.61 96.7543C187.52 96.7261 187.43 96.7155 187.337 96.7188C187.342 96.7274 187.347 96.7354 187.348 96.747C187.351 96.7607 187.348 96.7695 187.349 96.7814C187.487 96.8349 187.444 96.9993 187.507 97.1138C187.62 97.0055 187.728 97.0174 187.837 97.1262C187.876 97.1652 187.944 97.1758 187.999 97.1998C188.048 97.2215 188.111 97.2363 188.109 97.303C188.107 97.3583 188.051 97.38 188.007 97.3968C187.945 97.4203 187.896 97.3854 187.875 97.3316C187.841 97.2482 187.797 97.2006 187.704 97.2464C187.685 97.2554 187.657 97.2694 187.655 97.2836C187.65 97.3324 187.686 97.4025 187.596 97.404C187.511 97.4056 187.417 97.4379 187.345 97.3694C187.263 97.29 187.15 97.289 187.035 97.2125C187.057 97.2678 187.067 97.2916 187.076 97.3156C187.097 97.3738 187.229 97.4133 187.116 97.4934C187.023 97.5591 186.886 97.5162 186.834 97.4172C186.829 97.4076 186.825 97.3975 186.822 97.3872C186.801 97.2942 186.811 97.1562 186.699 97.1466C186.657 97.143 186.622 97.159 186.591 97.1812C186.585 97.2063 186.585 97.2352 186.587 97.2688C186.589 97.3017 186.558 97.326 186.547 97.3562C186.52 97.4311 186.537 97.4818 186.62 97.5045C186.688 97.5232 186.754 97.549 186.819 97.5733C186.932 97.6149 186.945 97.6989 186.854 97.7808C186.815 97.8165 186.768 97.8442 186.741 97.8959C186.947 97.8966 186.948 97.8966 186.96 98.1145C186.965 98.205 187.018 98.2505 187.094 98.2786C187.168 98.3055 187.238 98.3391 187.305 98.3774C187.299 98.2202 187.359 98.1975 187.564 98.2145C187.782 98.2326 188.011 98.2755 188.192 98.0879C188.225 98.054 188.272 98.0228 188.324 98.0432C188.388 98.0682 188.346 98.1295 188.361 98.1711C188.362 98.1747 188.362 98.1771 188.363 98.1804C188.365 98.0127 188.467 97.8822 188.645 97.8726Z" fill="#E5E5E5"/>
<path d="M191.709 86.8774C191.734 86.851 191.764 86.827 191.798 86.8055C191.752 86.8247 191.725 86.8492 191.709 86.8774Z" fill="#E5E5E5"/>
<path d="M192.393 99.2224C192.391 99.2167 192.391 99.2108 192.39 99.2052C192.39 99.2063 192.39 99.2065 192.389 99.2079C192.389 99.217 192.389 99.2213 192.393 99.2224Z" fill="#E5E5E5"/>
<path d="M192.396 99.2226C192.393 99.2231 192.394 99.2215 192.392 99.2215C192.393 99.2261 192.393 99.2309 192.394 99.2352C192.391 99.2475 192.419 99.2218 192.396 99.2226Z" fill="#E5E5E5"/>
<path d="M190.12 99.0848C190.122 99.0859 190.124 99.0875 190.126 99.0886C190.132 99.0923 190.136 99.0929 190.137 99.088C190.137 99.0872 190.137 99.0875 190.137 99.0867C190.135 99.0867 190.132 99.0864 190.126 99.0832C190.124 99.0837 190.122 99.0837 190.12 99.0848Z" fill="#E5E5E5"/>
<path d="M191.658 93.0544C191.667 93.0413 191.675 93.0291 191.672 93.0263C191.531 92.8583 191.742 92.5952 191.515 92.4499C191.44 92.4018 191.475 92.3742 191.539 92.3406C191.596 92.3106 191.733 92.3388 191.702 92.2605C191.662 92.1561 191.675 92.008 191.552 91.9485C191.453 91.901 191.346 91.7849 191.246 91.9754C191.216 92.0315 191.068 92.0018 191.021 92.101C191.005 92.2499 190.912 92.353 190.822 92.4584C190.825 92.4636 190.829 92.4665 190.832 92.4724C190.856 92.5505 190.821 92.6226 190.804 92.6947C190.785 92.7794 190.72 92.8164 190.631 92.8053C190.457 92.7841 190.386 92.864 190.43 93.0369C190.441 93.0831 190.472 93.1263 190.429 93.1707C190.511 93.202 190.586 93.2062 190.628 93.0803C190.676 93.0438 190.73 93.026 190.79 93.0304C190.939 93.101 190.804 93.1651 190.785 93.2323C190.776 93.2359 190.768 93.2392 190.758 93.2429C190.695 93.2604 190.657 93.2917 190.632 93.3302C190.651 93.4028 190.647 93.4812 190.645 93.5579C190.645 93.5574 190.646 93.5571 190.646 93.5566C190.674 93.4183 190.783 93.3465 190.92 93.3651C191.026 93.3793 191.09 93.4936 191.076 93.6383C191.067 93.7277 191.076 93.821 190.981 93.8936C191.103 93.9048 191.075 93.8153 191.075 93.7804C191.073 93.6641 191.095 93.5587 191.167 93.4672C191.203 93.4212 191.2 93.3832 191.174 93.3338C191.115 93.2201 191.136 93.1131 191.251 93.0777C191.381 93.0374 191.522 92.9671 191.658 93.0544Z" fill="#E5E5E5"/>
<path d="M189.647 98.9346C189.634 98.9408 189.621 98.9447 189.609 98.9478C189.614 98.9483 189.618 98.9478 189.623 98.9485C189.708 98.9602 189.803 98.9793 189.866 99.0325C189.95 99.1039 190.031 99.116 190.12 99.0847C190.097 99.0716 190.073 99.0573 190.056 99.0377C189.943 98.9105 189.822 98.8493 189.647 98.9346Z" fill="#E5E5E5"/>
<path d="M192.121 103.251C192.108 103.246 192.094 103.242 192.082 103.238C192.07 103.24 192.059 103.243 192.048 103.244C192.01 103.251 191.976 103.263 191.943 103.283C191.944 103.294 191.947 103.304 191.947 103.315C191.949 103.368 191.976 103.41 192.025 103.43C192.096 103.458 192.184 103.525 192.237 103.423C192.286 103.326 192.201 103.281 192.121 103.251Z" fill="#E5E5E5"/>
<path d="M192.373 101.336C192.375 101.329 192.378 101.323 192.381 101.317C192.378 101.323 192.374 101.329 192.371 101.336C192.371 101.336 192.372 101.336 192.373 101.336Z" fill="#E5E5E5"/>
<path d="M191.627 100.245C191.614 100.176 191.6 100.108 191.573 100.031C191.536 100.18 191.294 100.234 191.364 100.383C191.419 100.499 191.381 100.668 191.52 100.744C191.548 100.659 191.636 100.621 191.696 100.584C191.755 100.547 191.836 100.667 191.931 100.675C191.984 100.679 191.959 100.744 191.953 100.785C191.944 100.838 191.939 100.892 191.933 100.945C192.001 101.036 192.106 101.044 192.202 101.072C192.246 101.05 192.286 101.02 192.338 101.049C192.427 101.117 192.408 101.206 192.389 101.296C192.385 101.303 192.383 101.31 192.38 101.317C192.383 101.311 192.386 101.307 192.387 101.301C192.436 101.258 192.47 101.298 192.509 101.318C192.561 101.184 192.591 101.042 192.651 100.912C192.557 100.835 192.497 100.728 192.434 100.629C192.36 100.512 192.258 100.473 192.134 100.468C192 100.463 191.887 100.422 191.8 100.323C191.7 100.395 191.647 100.352 191.627 100.245Z" fill="#E5E5E5"/>
<path d="M188.371 98.3683C188.395 98.3383 188.388 98.3161 188.378 98.2949C188.371 98.3747 188.325 98.4383 188.238 98.4887C188.207 98.5068 188.188 98.5448 188.175 98.5887C188.244 98.5613 188.296 98.5463 188.317 98.5944C188.315 98.5143 188.317 98.436 188.371 98.3683Z" fill="#E5E5E5"/>
<path d="M188.404 98.8054C188.356 98.7997 188.336 98.7746 188.327 98.7374C188.326 98.8312 188.343 98.9302 188.474 98.9646C188.512 98.9742 188.509 99.0347 188.512 99.0409C188.502 99.0034 188.528 98.9096 188.568 98.8374C188.513 98.863 188.458 98.8124 188.404 98.8054Z" fill="#E5E5E5"/>
<path d="M188.317 98.5944C188.318 98.6221 188.32 98.6502 188.32 98.6782C188.32 98.7012 188.322 98.7203 188.327 98.7373C188.327 98.7185 188.327 98.6994 188.328 98.6807C188.33 98.6404 188.326 98.613 188.317 98.5944Z" fill="#E5E5E5"/>
<path d="M188.568 98.8373C188.585 98.8298 188.602 98.8156 188.619 98.7903C188.633 98.7696 188.65 98.7541 188.668 98.7438C188.662 98.7453 188.656 98.7448 188.649 98.7474C188.621 98.7582 188.592 98.7934 188.568 98.8373Z" fill="#E5E5E5"/>
<path d="M188.668 98.7443C188.724 98.733 188.774 98.7606 188.806 98.8064C188.822 98.8291 188.84 98.8441 188.859 98.856C188.844 98.841 188.829 98.8221 188.817 98.7934C188.789 98.7309 188.724 98.7133 188.668 98.7443Z" fill="#E5E5E5"/>
<path d="M189.032 98.8358C189.007 98.8586 188.981 98.872 188.954 98.8798C188.962 98.8793 188.97 98.88 188.98 98.8787C189.08 98.865 189.141 98.9206 189.175 99.0134C189.206 99.0992 189.22 99.1935 189.287 99.2631C189.262 99.085 189.357 98.9632 189.523 98.9472C189.45 98.9299 189.383 98.8759 189.322 98.8374C189.216 98.7712 189.137 98.7449 189.032 98.8358Z" fill="#E5E5E5"/>
<path d="M184.917 90.3381V90.3386C184.928 90.328 184.942 90.3215 184.955 90.3148C184.942 90.3213 184.928 90.328 184.917 90.3381Z" fill="#E5E5E5"/>
<path d="M194.424 92.0168C194.397 92.0315 194.351 92.0617 194.313 92.038C194.313 92.0385 194.312 92.039 194.311 92.0398C194.301 92.0447 194.291 92.046 194.281 92.0475C194.274 92.137 194.275 92.2207 194.4 92.2548C194.437 92.2646 194.496 92.3091 194.51 92.2894C194.576 92.1946 194.7 92.2359 194.77 92.1638C194.794 92.139 194.786 92.1083 194.756 92.0984C194.648 92.0625 194.563 91.9449 194.424 92.0168Z" fill="#E5E5E5"/>
<path d="M194 84C186.28 84 180 90.2805 180 98C180 105.72 186.28 112 194 112C201.72 112 208 105.72 208 98C208 90.2805 201.72 84 194 84ZM199.098 88.1464C199.155 88.1206 199.148 88.0717 199.154 88.0226C199.174 87.8011 199.31 87.6354 199.486 87.5439C199.583 87.4938 199.722 87.6075 199.811 87.7024C199.845 87.7373 199.867 87.7828 199.894 87.8231C199.928 87.8094 199.963 87.7931 199.999 87.7822C200.064 87.7626 200.101 87.7334 200.041 87.6706C200.014 87.6424 199.979 87.6166 200.003 87.5752C200.03 87.5315 200.079 87.5385 200.122 87.5437C200.153 87.5476 200.186 87.5582 200.212 87.5737C200.292 87.6204 200.363 87.6796 200.455 87.7C200.608 87.8949 200.758 88.0955 200.906 88.3072C201.206 88.738 201.479 89.1844 201.731 89.6429C201.712 89.6726 201.691 89.7 201.666 89.723C201.602 89.7796 201.566 89.8667 201.477 89.8946C201.461 89.8915 201.444 89.8936 201.427 89.8925C201.363 89.9447 201.274 89.8979 201.201 89.9142C201.197 89.9106 201.193 89.9096 201.189 89.9065C201.108 89.9173 201.028 89.9243 200.947 89.9083C200.951 89.9225 200.951 89.9375 200.936 89.9553C200.914 89.9825 200.875 89.9931 200.848 89.9757C200.7 89.8778 200.493 89.8871 200.386 89.7175C200.23 89.686 200.109 89.572 199.961 89.5224C199.951 89.5216 199.941 89.5211 199.931 89.5201C199.865 89.4904 199.809 89.4428 199.739 89.419C199.705 89.4082 199.669 89.3645 199.692 89.3337C199.824 89.1611 199.653 89.1347 199.568 89.0662C199.558 89.0657 199.547 89.0652 199.537 89.0642C199.52 89.021 199.503 88.9778 199.538 88.9344C199.537 88.9241 199.536 88.9135 199.536 88.9032C199.404 88.9559 199.387 88.8106 199.308 88.7713C199.16 88.6403 199.015 88.5098 199.035 88.2816C199.041 88.2237 199.039 88.1733 199.098 88.1464ZM197.634 88.324C197.662 88.2464 197.735 88.2506 197.801 88.2676C197.884 88.2904 197.933 88.3415 197.919 88.3899C197.877 88.546 197.986 88.5958 198.012 88.6822C198.027 88.7315 198.081 88.7773 198.03 88.83C197.984 88.8786 197.941 88.8416 197.902 88.8114C197.859 88.7781 197.803 88.8088 197.76 88.7876C197.701 88.7582 197.561 88.7548 197.699 88.6393C197.754 88.5922 197.715 88.5581 197.672 88.5418C197.539 88.4886 197.607 88.3984 197.634 88.324ZM183.368 105.138C183.276 105.124 183.256 105.03 183.23 104.957C183.215 104.918 183.231 104.857 183.289 104.863C183.383 104.872 183.42 104.947 183.439 105.025C183.437 105.082 183.427 105.146 183.368 105.138ZM184.42 105.617C184.333 105.69 184.246 105.64 184.17 105.583C183.871 105.355 183.754 105.056 183.823 104.694C184.163 104.785 184.329 105.052 184.461 105.349C184.504 105.446 184.505 105.546 184.42 105.617ZM189.697 108.636C189.639 108.631 189.563 108.62 189.57 108.549C189.577 108.48 189.662 108.489 189.717 108.478C189.77 108.466 189.818 108.494 189.816 108.553C189.815 108.623 189.753 108.629 189.697 108.636ZM191.672 109.495C191.639 109.473 191.607 109.451 191.574 109.429C191.544 109.387 191.5 109.368 191.456 109.346C191.379 109.309 191.364 109.243 191.383 109.169C191.403 109.093 191.474 109.102 191.53 109.096C191.567 109.09 191.605 109.103 191.642 109.1C191.864 109.077 191.916 109.105 191.928 109.263C191.941 109.412 191.867 109.48 191.672 109.495ZM192.222 107.695C192.189 107.716 192.172 107.728 192.193 107.765L192.193 107.766C191.991 107.89 191.781 107.974 191.542 107.873C191.492 107.852 191.439 107.808 191.389 107.835C191.235 107.916 191.179 107.818 191.138 107.704C191.1 107.595 191.001 107.526 190.952 107.415C191.07 107.378 191.165 107.485 191.231 107.475C191.38 107.454 191.554 107.48 191.678 107.362C191.764 107.28 191.802 107.259 191.831 107.406C191.866 107.574 192.036 107.641 192.194 107.569C192.205 107.569 192.215 107.569 192.226 107.569C192.285 107.613 192.274 107.662 192.222 107.695ZM193.379 105.962C193.312 105.96 193.263 105.931 193.265 105.856C193.266 105.801 193.299 105.76 193.354 105.763C193.43 105.765 193.458 105.828 193.487 105.882C193.475 105.946 193.431 105.963 193.379 105.962ZM203.433 94.591C203.419 94.5912 203.405 94.5925 203.392 94.5959C203.379 94.6036 203.366 94.6088 203.352 94.6135C203.332 94.6109 203.318 94.6168 203.303 94.623C203.29 94.6832 203.287 94.7455 203.289 94.8086C203.236 94.7977 203.206 94.7649 203.183 94.7236C203.174 94.7287 203.167 94.7357 203.156 94.737C203.016 94.7156 202.917 94.737 202.904 94.913C202.897 95.0084 202.82 95.0433 202.742 94.9681C202.595 94.8257 202.426 94.7432 202.22 94.7424C202.176 94.7424 202.157 94.7047 202.133 94.6752C202.063 94.5959 202.013 94.5137 202.084 94.4088C202.095 94.393 202.108 94.379 202.12 94.3643C202.108 94.3392 202.096 94.3147 202.081 94.2922C202.021 94.2085 201.944 94.2025 201.88 94.2785C201.829 94.3385 201.818 94.4708 201.715 94.4331C201.616 94.3964 201.626 94.2728 201.628 94.1751C201.629 94.1588 201.63 94.1428 201.63 94.1265C201.646 94.079 201.691 94.0772 201.731 94.0671C201.728 94.0655 201.725 94.0658 201.723 94.0637C201.72 94.0549 201.721 94.0462 201.719 94.0371C201.614 94.0795 201.474 94.0505 201.399 93.9598C201.401 93.9094 201.382 93.8647 201.358 93.8223C201.326 93.7665 201.277 93.7115 201.337 93.6479C201.398 93.584 201.474 93.5411 201.563 93.5339C201.64 93.5282 201.63 93.6021 201.651 93.6484C201.671 93.6029 201.681 93.5662 201.685 93.5339C201.64 93.3974 201.566 93.3672 201.376 93.401C201.255 93.3313 201.146 93.2444 200.993 93.2424C200.89 93.2411 200.904 93.1421 200.892 93.0687C200.867 92.8994 200.845 92.7293 200.804 92.5626C200.802 92.6161 200.799 92.6694 200.79 92.7221C200.781 92.772 200.785 92.825 200.712 92.8461C200.643 92.8658 200.614 92.8324 200.579 92.7906C200.571 92.7673 200.565 92.7433 200.555 92.7218C200.494 92.7218 200.432 92.7213 200.371 92.7234C200.339 92.7244 200.287 92.7262 200.279 92.7428C200.231 92.8565 200.178 92.8774 200.084 92.7839C200.044 92.7443 200.021 92.8035 200.003 92.8324C199.947 92.9211 199.893 92.9679 199.813 92.8529C199.781 92.8074 199.723 92.7945 199.668 92.7852C199.658 92.7841 199.647 92.7836 199.637 92.7836C199.544 92.8715 199.437 92.9097 199.309 92.881C199.14 92.8578 199.157 92.9785 199.217 93.0457C199.331 93.1775 199.224 93.3594 199.341 93.4809C199.344 93.484 199.343 93.4931 199.34 93.4967C199.143 93.7616 199.42 93.9557 199.443 94.1878C199.474 94.1994 199.505 94.2108 199.536 94.2224C199.636 94.2808 199.698 94.363 199.707 94.4827C199.709 94.514 199.718 94.5553 199.739 94.5726C199.937 94.7321 199.902 94.9957 200.021 95.1901C200.047 95.233 200.043 95.3136 200.123 95.2795C200.184 95.2537 200.163 95.1999 200.134 95.1557C200.114 95.1257 200.103 95.095 200.139 95.0704C200.177 95.0435 200.202 95.0797 200.219 95.1012C200.382 95.2914 200.561 95.2764 200.778 95.1885C200.882 95.1464 201.011 95.035 201.147 95.1521C201.168 95.1702 201.195 95.1394 201.213 95.1187C201.242 95.0864 201.226 94.998 201.294 95.0218C201.352 95.042 201.326 95.1169 201.332 95.1686C201.332 95.1717 201.332 95.1748 201.332 95.1782C201.342 95.1779 201.352 95.1779 201.362 95.1777C201.444 95.2058 201.538 95.1994 201.611 95.2549C201.617 95.264 201.619 95.2746 201.621 95.2852C201.63 95.2798 201.64 95.2751 201.65 95.2705C201.685 95.2361 201.738 95.2286 201.779 95.2043C201.827 95.1994 201.883 95.1916 201.885 95.2604C201.886 95.333 201.916 95.3896 201.96 95.4408C202.001 95.4888 201.985 95.5374 201.952 95.5697C201.876 95.6444 201.921 95.6829 201.985 95.7225C202.121 95.859 202.113 96.0732 202.246 96.2115C202.249 96.2852 202.278 96.3513 202.327 96.4009C202.439 96.5136 202.44 96.6811 202.541 96.8015C202.586 96.8545 202.521 96.9111 202.461 96.9315C202.394 96.9545 202.324 96.9545 202.255 96.9303C202.217 96.9166 202.174 96.8631 202.141 96.9039C202.102 96.9499 202.157 96.99 202.182 97.029H202.181C202.114 97.0796 202.187 97.1768 202.116 97.2264C202.071 97.266 202.016 97.2854 201.967 97.2469C201.873 97.1732 201.76 97.1742 201.658 97.1838C201.5 97.1983 201.376 97.0915 201.227 97.0915C201.209 97.0915 201.194 97.0786 201.187 97.0672C201.083 96.8972 200.905 96.8116 200.762 96.6876C200.675 96.6129 200.628 96.4805 200.666 96.327C200.714 96.1306 200.754 95.9287 200.768 95.7253C200.754 95.7091 200.741 95.692 200.721 95.6817C200.675 95.646 200.621 95.6434 200.567 95.6411C200.531 95.6395 200.503 95.6274 200.478 95.6119C200.444 95.6008 200.41 95.5865 200.376 95.569C200.212 95.4847 200.166 95.5204 200.156 95.7036C200.154 95.7414 200.154 95.7799 200.149 95.8176C200.139 95.8874 200.104 95.9471 200.034 95.9595C199.96 95.9727 199.933 95.9039 199.912 95.8502C199.849 95.6959 199.743 95.6023 199.573 95.5824C199.538 95.5778 199.499 95.5594 199.471 95.5359C199.374 95.4542 199.292 95.5204 199.284 95.5935C199.268 95.7535 199.07 95.7047 199.037 95.8383C199.032 95.861 198.978 95.8202 198.985 95.7868C199.004 95.6894 198.969 95.6189 198.894 95.5602C198.879 95.5486 198.865 95.5188 198.87 95.5038C198.93 95.3209 198.757 95.3542 198.681 95.3082C198.592 95.2539 198.503 95.2728 198.45 95.3878C198.414 95.3183 198.434 95.2583 198.427 95.2007C198.361 95.1366 198.406 95.0663 198.433 95.011C198.453 94.9665 198.465 94.9404 198.428 94.9066C198.427 94.8957 198.426 94.8851 198.425 94.8748C198.529 94.8213 198.645 94.8732 198.751 94.8396C198.751 94.8298 198.752 94.8202 198.752 94.8107C198.66 94.7636 198.604 94.6757 198.524 94.6137C198.514 94.6129 198.504 94.6122 198.494 94.6117C198.421 94.5416 198.36 94.4607 198.305 94.3759C198.305 94.432 198.241 94.4605 198.181 94.4824C198.086 94.5168 197.992 94.5375 197.915 94.6181C197.857 94.6786 197.773 94.6378 197.707 94.5974C197.548 94.4995 197.457 94.5127 197.317 94.644C197.272 94.6869 197.231 94.7468 197.155 94.7437C196.93 94.7546 196.93 94.7546 196.931 94.539C196.931 94.4946 196.904 94.4219 196.873 94.4558C196.764 94.5755 196.719 94.4499 196.652 94.416C196.614 94.3966 196.578 94.3721 196.541 94.3498C196.459 94.3553 196.369 94.3307 196.309 94.415C196.211 94.5806 196.211 94.5801 196.089 94.4165C196.07 94.3917 196.046 94.3651 196.018 94.354C195.909 94.3116 195.897 94.2545 195.98 94.1749C196.019 94.1374 196.054 94.0759 195.994 94.0552C195.795 93.988 195.793 93.7195 195.568 93.6711C195.472 93.6505 195.558 93.5432 195.575 93.4765C195.389 93.4726 195.222 93.3987 195.043 93.4253C194.992 93.4328 194.973 93.3905 194.968 93.3395C194.957 93.209 195.069 93.1547 195.135 93.0754C195.158 93.0462 195.217 93.0852 195.227 93.1348C195.238 93.1891 195.266 93.1956 195.308 93.1736C195.331 93.1615 195.365 93.148 195.371 93.1284C195.386 93.0788 195.335 93.0723 195.305 93.0503C195.222 92.987 195.097 92.9609 195.07 92.8456C195.065 92.8436 195.06 92.8415 195.055 92.8397C195.04 92.8376 195.026 92.8361 195.011 92.8345C194.985 92.8146 194.967 92.7939 194.952 92.7725C194.935 92.7655 194.921 92.7544 194.914 92.7304C194.898 92.6722 194.936 92.6301 194.978 92.5947C194.989 92.5851 195 92.5758 195.012 92.5662C195.019 92.5414 195.025 92.5164 195.031 92.491C194.889 92.5546 194.79 92.6624 194.727 92.811C194.713 92.8436 194.678 92.8614 194.642 92.8433C194.692 92.8836 194.742 92.9317 194.794 92.9751C194.819 92.9958 194.844 93.0191 194.858 93.0483C194.878 93.0917 194.937 93.1633 194.889 93.1811C194.728 93.2403 194.851 93.4962 194.654 93.5062C194.543 93.5119 194.514 93.551 194.555 93.6461C194.585 93.7164 194.569 93.789 194.571 93.8601C194.587 93.8601 194.604 93.8634 194.62 93.8727C194.71 93.9286 194.803 93.9914 194.809 94.1141C194.815 94.225 194.771 94.2963 194.66 94.3426C194.479 94.4176 194.383 94.5716 194.334 94.7569C194.331 94.7582 194.328 94.7574 194.324 94.7577C194.412 94.966 194.194 95.2645 193.969 95.212C193.91 95.1981 193.85 95.2033 193.791 95.2113C193.581 95.2397 193.507 95.4178 193.635 95.5889C193.691 95.6656 193.77 95.7083 193.859 95.7429C194.026 95.8091 194.04 95.8636 193.943 96.0138C193.888 96.0978 193.919 96.1655 194.023 96.211C194.073 96.2327 194.128 96.2469 194.16 96.3066C194.176 96.3353 194.206 96.3655 194.18 96.3854C194.108 96.441 194.037 96.494 193.973 96.5607C193.935 96.6012 193.878 96.5715 193.827 96.5529C193.827 96.5539 193.827 96.555 193.827 96.556C193.829 96.5757 193.826 96.595 193.826 96.6147C193.859 96.7007 193.902 96.6899 194.086 96.639C194.102 96.6793 194.139 96.6995 194.17 96.7243C194.258 96.794 194.253 96.8752 194.152 96.9969C194.101 97.0248 194.035 97.0308 194.001 97.0848C193.974 97.1282 193.894 97.1435 193.915 97.2094C193.935 97.2704 194.01 97.1825 194.051 97.2699C193.93 97.2911 193.822 97.3451 193.701 97.3536C193.679 97.3769 193.655 97.3994 193.631 97.4182C193.529 97.4267 193.421 97.5087 193.324 97.403C193.323 97.3851 193.324 97.3678 193.325 97.3505C193.222 97.3319 193.119 97.3541 193.017 97.3564C193.007 97.3766 192.996 97.3968 192.984 97.4211C192.895 97.4459 192.808 97.4753 192.755 97.5604C192.747 97.5746 192.735 97.5942 192.723 97.5947C192.522 97.6074 192.332 97.7537 192.122 97.6658C192.122 97.6663 192.121 97.6674 192.121 97.6681C192.124 97.6756 192.127 97.6837 192.13 97.6901C192.179 97.8137 192.27 97.8496 192.388 97.831C192.556 97.8041 192.663 97.8641 192.703 98.0333C192.735 98.138 192.713 98.2207 192.618 98.2866C192.504 98.3667 192.417 98.496 192.25 98.4694C192.193 98.4606 192.19 98.5063 192.187 98.5472C192.187 98.6146 192.127 98.6337 192.088 98.6697C192.018 98.6963 191.988 98.7599 191.955 98.8175C191.886 98.9385 191.895 98.9563 192.032 98.97C192.135 98.9803 192.225 99.0349 192.327 99.0509C192.409 99.0643 192.384 99.1411 192.39 99.2057C192.4 99.1297 192.462 99.1421 192.511 99.1357C192.668 99.117 192.825 99.1589 192.982 99.1478C193.03 99.1447 193.074 99.1716 193.071 99.2215C193.061 99.4422 193.235 99.5161 193.38 99.597C193.651 99.7495 193.655 99.7417 193.713 100.029C193.786 99.9405 193.788 99.8213 193.88 99.75C193.997 99.6585 194.036 99.6595 194.087 99.7963C194.104 99.8449 194.161 99.8808 194.139 99.9433C194.138 99.9666 194.138 99.9901 194.133 100.013C194.13 100.014 194.129 100.017 194.126 100.018C194.26 100.074 194.342 100.168 194.405 100.319C194.507 100.563 194.496 100.783 194.407 101.014C194.377 101.089 194.358 101.176 194.265 101.176C194.265 101.177 194.265 101.177 194.265 101.178C194.263 101.203 194.264 101.226 194.263 101.25C194.3 101.346 194.296 101.462 194.401 101.524C194.452 101.554 194.496 101.594 194.544 101.63C194.723 101.635 194.872 101.69 194.954 101.866C194.992 101.945 195.06 101.98 195.149 101.993C195.255 102.008 195.365 102.023 195.457 102.087C195.431 102.301 195.438 102.364 195.532 102.597C195.571 102.692 195.591 102.782 195.523 102.871C195.523 102.877 195.522 102.885 195.522 102.891C195.533 102.89 195.543 102.888 195.554 102.892C195.634 103.032 195.618 103.145 195.466 103.268C195.361 103.353 195.277 103.462 195.153 103.526C195.076 103.565 195.065 103.611 195.116 103.694C195.159 103.765 195.28 103.856 195.13 103.947C195.099 103.976 195.061 104.001 195.036 104.035C194.942 104.154 194.83 104.199 194.679 104.158C194.536 104.12 194.401 104.139 194.285 104.242C194.219 104.3 194.177 104.351 194.301 104.381C194.346 104.391 194.393 104.397 194.379 104.458C194.368 104.507 194.323 104.526 194.278 104.522C194.225 104.517 194.173 104.499 194.121 104.487C194.04 104.469 193.96 104.474 193.925 104.556C193.869 104.685 193.767 104.679 193.666 104.654C193.533 104.621 193.403 104.586 193.266 104.606C193.187 104.619 193.153 104.521 193.075 104.535C193.013 104.528 192.955 104.5 192.896 104.48C192.902 104.483 192.909 104.485 192.915 104.488C192.967 104.514 193.023 104.533 193.071 104.568C193.109 104.628 193.131 104.696 193.152 104.763C193.154 104.809 193.172 104.842 193.222 104.852C193.265 104.86 193.281 104.89 193.277 104.933C193.272 104.981 193.239 104.995 193.201 105.003C193.148 105.016 193.097 105.035 193.045 105.048C192.965 105.067 192.91 105.094 192.909 105.192C192.908 105.252 192.859 105.296 192.815 105.338C192.777 105.375 192.723 105.416 192.757 105.473C192.788 105.525 192.844 105.491 192.89 105.482C193.017 105.455 193.149 105.444 193.211 105.301C193.22 105.281 193.25 105.286 193.271 105.286C193.413 105.262 193.499 105.33 193.542 105.458C193.596 105.615 193.529 105.7 193.359 105.713C193.201 105.724 193.06 105.802 192.914 105.857C192.849 105.882 192.833 105.966 192.871 106.011C193.036 106.205 192.952 106.379 192.845 106.554C192.823 106.576 192.801 106.597 192.78 106.618C192.704 106.544 192.618 106.494 192.508 106.49C192.317 106.484 192.26 106.305 192.147 106.2C192.109 106.164 192.173 106.142 192.206 106.13C192.299 106.098 192.301 106.04 192.257 105.966C192.193 105.857 192.152 105.741 192.159 105.612C192.058 105.588 191.993 105.557 192.099 105.45C192.159 105.39 192.231 105.323 192.136 105.224C192.09 105.176 192.104 105.106 192.163 105.071C192.202 105.047 192.237 105.017 192.274 104.991C192.183 104.991 192.099 104.977 192.054 104.849C192.026 104.769 191.914 104.777 191.834 104.807C191.775 104.829 191.697 104.853 191.703 104.932C191.709 105.021 191.771 105.079 191.861 105.094C191.911 105.102 191.95 105.128 191.99 105.157C192.075 105.219 192.068 105.281 191.97 105.304C191.876 105.327 191.81 105.361 191.793 105.461C191.792 105.461 191.782 105.461 191.778 105.459C191.774 105.457 191.771 105.452 191.767 105.448C191.554 105.458 191.546 105.467 191.54 105.708C191.541 105.718 191.541 105.729 191.541 105.739C191.611 105.725 191.672 105.756 191.735 105.773C191.837 106.004 191.822 106.025 191.541 106.034C191.541 106.066 191.542 106.098 191.542 106.13C191.665 106.152 191.763 106.163 191.725 106.352C191.699 106.48 191.747 106.646 191.906 106.72C191.952 106.741 192.001 106.772 191.975 106.829C191.949 106.886 191.911 106.815 191.879 106.824C191.699 106.879 191.513 106.779 191.33 106.864C191.211 106.92 191.01 106.874 190.907 106.799C190.905 106.798 190.903 106.797 190.902 106.795C190.883 106.781 190.866 106.766 190.856 106.75C190.856 106.74 190.855 106.73 190.854 106.719C190.843 106.744 190.824 106.767 190.823 106.791C190.809 107.075 190.753 107.121 190.462 107.088C190.441 107.085 190.42 107.081 190.399 107.077C190.36 106.948 190.269 106.888 190.138 106.882C190.033 106.874 189.935 106.852 189.875 106.752C189.753 106.698 189.629 106.646 189.508 106.589C189.485 106.578 189.452 106.551 189.454 106.533C189.465 106.377 189.355 106.369 189.245 106.344C189.095 106.31 189.019 106.167 188.9 106.084C188.856 106.052 188.885 105.989 188.911 105.949C188.968 105.862 188.938 105.804 188.869 105.739C188.774 105.65 188.728 105.353 188.779 105.236C188.815 105.155 188.893 105.166 188.959 105.15C188.85 105.095 188.786 105.013 188.766 104.888C188.748 104.777 188.633 104.735 188.549 104.805C188.506 104.842 188.47 104.864 188.422 104.836C188.347 104.792 188.318 104.842 188.305 104.895C188.292 104.95 188.316 104.991 188.385 104.984C188.471 104.974 188.47 105.016 188.45 105.083C188.379 105.322 188.38 105.322 188.132 105.259C188.019 105.232 187.96 105.275 187.98 105.394C188.001 105.514 188.042 105.634 188 105.755C187.968 105.849 187.94 105.952 187.798 105.865C187.697 105.804 187.655 105.866 187.668 105.963C187.678 106.041 187.663 106.079 187.577 106.068C187.528 106.063 187.501 106.101 187.469 106.13C187.335 106.252 187.318 106.245 187.279 106.064C187.275 106.042 187.27 106.021 187.265 106C187.218 105.855 187.105 105.751 187.036 105.618C186.963 105.477 186.804 105.441 186.646 105.446C186.618 105.505 186.584 105.559 186.651 105.621C186.696 105.662 186.709 105.724 186.697 105.814C186.505 105.657 186.293 105.579 186.057 105.577C185.933 105.54 185.814 105.473 185.678 105.524C185.664 105.529 185.638 105.531 185.631 105.523C185.506 105.371 185.306 105.357 185.146 105.277C184.943 105.176 184.818 104.989 184.621 104.891C184.567 104.864 184.53 104.842 184.461 104.863C184.374 104.889 184.27 104.85 184.251 104.754C184.203 104.507 183.98 104.485 183.814 104.408C183.623 104.321 183.549 104.218 183.61 104.01C183.535 103.867 183.474 103.718 183.42 103.565C183.39 103.478 183.342 103.398 183.252 103.356C183.107 103.322 183.016 103.226 182.965 103.092C182.907 102.94 182.761 102.909 182.637 102.848C182.59 102.824 182.55 102.848 182.562 102.911C182.567 102.943 182.58 102.974 182.585 103.006C182.591 103.054 182.598 103.114 182.536 103.126C182.473 103.139 182.446 103.08 182.448 103.033C182.458 102.866 182.374 102.735 182.305 102.594C182.264 102.509 182.218 102.48 182.128 102.504C181.98 102.544 181.876 102.48 181.805 102.352C181.745 102.242 181.68 102.137 181.563 102.075C181.461 102.021 181.534 101.929 181.522 101.855C181.522 101.833 181.52 101.812 181.52 101.791C181.381 101.713 181.361 101.569 181.322 101.436C181.299 101.359 181.281 101.28 181.262 101.202C181.209 100.963 181.022 100.778 180.988 100.531C180.984 100.503 180.961 100.478 180.931 100.487C180.871 100.506 180.897 100.554 180.899 100.596C180.905 100.791 180.939 100.984 180.956 101.178C180.922 101.127 180.888 101.076 180.854 101.025C180.655 99.9896 180.536 98.9459 180.587 97.8886C180.635 96.8992 180.781 95.9251 181.026 94.9611C181.179 94.3573 181.37 93.7732 181.616 93.2041C181.645 93.087 181.689 92.9756 181.746 92.8697C181.842 92.7585 181.87 92.6151 181.931 92.4872C182.133 92.0607 182.362 91.6505 182.612 91.253C182.703 91.2259 182.79 91.1866 182.871 91.1269C182.732 91.3409 182.593 91.5544 182.459 91.772C182.369 91.9204 182.319 92.0845 182.245 92.239C182.17 92.2556 182.151 92.3055 182.149 92.3783C182.147 92.4471 182.117 92.4804 182.066 92.4747C182.123 92.5388 182.137 92.6345 182.194 92.7115C182.27 92.6208 182.363 92.5554 182.415 92.4525C182.526 92.2292 182.695 92.0478 182.853 91.8609C183.007 91.6797 183.147 91.488 183.295 91.3052C183.465 91.0956 183.648 90.8847 183.872 90.7206C183.95 90.7423 184.017 90.7196 184.077 90.6697C184.118 90.6353 184.163 90.6079 184.211 90.5836C184.436 90.4689 184.496 90.489 184.585 90.7085C184.546 90.8731 184.447 91.0057 184.34 91.1308C184.166 91.3344 183.954 91.5058 183.895 91.7927C183.865 91.9353 183.733 91.9635 183.504 91.9074C183.629 92.1643 183.605 92.4032 183.435 92.6293C183.399 92.6769 183.375 92.7203 183.307 92.6908C183.307 92.69 183.306 92.689 183.305 92.6882C183.27 92.8079 183.24 92.926 183.114 93.0028C183.031 93.0532 183.028 93.2248 182.868 93.169C182.864 93.1896 182.855 93.2106 182.857 93.2307C182.861 93.2775 182.884 93.3682 182.904 93.3501C183.01 93.2586 183.082 93.5106 183.176 93.3677C183.22 93.301 183.291 93.2928 183.359 93.276C183.541 93.2312 183.558 93.1878 183.46 93.0253C183.436 92.986 183.413 92.9185 183.466 92.9219C183.622 92.9317 183.662 92.8187 183.728 92.6727C183.768 92.8586 183.902 92.9516 183.905 93.108C183.907 93.1796 183.947 93.2049 184.015 93.177C184.064 93.1566 184.114 93.1333 184.163 93.1111C184.153 93.1105 184.144 93.1098 184.134 93.109C184.045 93.0307 183.95 92.9583 184.035 92.8156C184.052 92.7888 184.018 92.7345 184.013 92.6918C183.992 92.5125 183.983 92.3352 184.132 92.1961C184.154 92.1855 184.177 92.1749 184.199 92.1643C184.364 92.0405 184.484 91.8731 184.625 91.7263C184.701 91.6464 184.766 91.5844 184.899 91.6112C185.017 91.635 185.143 91.6009 185.241 91.511C185.205 91.2044 185.386 90.9806 185.538 90.7496C185.645 90.5875 185.77 90.4376 185.886 90.2825C185.906 90.2567 185.931 90.2556 185.958 90.2683C185.964 90.1021 186.072 90.0781 186.211 90.0657C186.47 90.0424 186.721 89.9822 186.952 89.8183C186.879 89.762 186.785 89.7884 186.742 89.7168C186.738 89.7119 186.735 89.708 186.732 89.7028C186.666 89.5234 186.842 89.4785 186.917 89.3808C186.969 89.3146 187.046 89.2748 187.133 89.3327C187.216 89.3888 187.214 89.532 187.122 89.6198C187.08 89.6602 187.022 89.6845 186.972 89.7163C187.138 89.7959 187.277 89.6894 187.422 89.6436C187.617 89.5816 187.805 89.4942 188.015 89.488C188.098 89.4896 188.169 89.4498 188.244 89.4221C188.375 89.3635 188.474 89.4578 188.501 89.541C188.537 89.648 188.592 89.6379 188.664 89.6333C188.727 89.6294 188.783 89.6418 188.831 89.6824C188.868 89.6894 188.895 89.7054 188.898 89.7468C188.974 89.7473 189.05 89.748 189.126 89.7488C189.134 89.7429 189.143 89.7349 189.152 89.7318C189.237 89.7018 189.235 89.5527 189.336 89.5713C189.42 89.5865 189.487 89.6635 189.561 89.7152C189.578 89.7271 189.597 89.7364 189.615 89.748C189.647 89.7486 189.68 89.7486 189.712 89.7488C189.788 89.8046 189.865 89.8026 189.94 89.748C190.01 89.7062 190.065 89.6312 190.167 89.6602C190.255 89.6855 190.32 89.7206 190.34 89.8202C190.36 89.9251 190.261 89.9135 190.201 89.962C190.343 90.0347 190.517 89.945 190.624 90.0773C190.627 90.128 190.649 90.159 190.705 90.1507C190.785 90.1391 190.849 90.1835 190.92 90.2063C190.985 90.2161 191.038 90.2993 191.115 90.2373C191.116 90.1729 191.117 90.1083 191.118 90.044C191.132 90.0334 191.14 90.0331 191.148 90.0357C191.146 90.0006 191.121 89.968 191.132 89.9313C191.11 89.9088 191.108 89.8659 191.083 89.847C190.977 89.7935 190.952 89.7258 191.041 89.6323C191.062 89.6093 191.085 89.578 191.087 89.5488C191.117 89.1678 191.383 89.0373 191.703 88.9861C191.872 88.9592 192.016 88.8435 192.186 88.8303C192.165 88.7804 192.177 88.7189 192.182 88.6628C192.192 88.5568 192.173 88.5113 192.05 88.5346C191.913 88.5604 191.834 88.4661 191.854 88.325C191.848 88.332 191.842 88.3366 191.834 88.342C191.698 88.3516 191.689 88.2482 191.667 88.1549C191.718 88.0673 191.777 87.9936 191.895 87.9962C191.955 87.9978 191.989 87.9585 191.991 87.8954C192.003 87.868 192.022 87.8463 192.039 87.8251C191.888 87.7995 191.726 87.8321 191.598 87.7225C191.58 87.7088 191.567 87.6894 191.549 87.6752C191.429 87.5824 191.45 87.468 191.498 87.3485C191.518 87.2987 191.547 87.2676 191.605 87.2674C191.745 87.2664 191.751 87.1837 191.716 87.0795C191.69 87.0038 191.674 86.9317 191.708 86.8745C191.652 86.9322 191.623 87.0027 191.66 87.103C191.694 87.1917 191.65 87.2302 191.571 87.2457C191.501 87.2594 191.43 87.2426 191.36 87.2472C191.182 87.2583 191.166 87.2733 191.142 87.4581C191.128 87.5142 191.103 87.5633 191.057 87.5992C190.884 87.6292 190.774 87.5044 190.687 87.4026C190.592 87.2899 190.553 87.2844 190.488 87.4077C190.452 87.4773 190.397 87.5088 190.32 87.515C190.019 87.5408 189.905 87.7716 189.793 88.0024C189.771 88.0487 189.791 88.0975 189.803 88.1454C189.855 88.3674 189.803 88.4498 189.582 88.5196C189.451 88.5612 189.301 88.5982 189.185 88.5623C189.029 88.5134 188.853 88.4876 188.72 88.3738C188.68 88.3392 188.641 88.279 188.606 88.378C188.565 88.4521 188.653 88.5697 188.526 88.6152C188.381 88.6672 188.243 88.7582 188.08 88.6641C187.972 88.6015 187.855 88.5958 187.737 88.6431C187.678 88.6667 187.623 88.6868 187.592 88.6064C187.355 88.653 187.142 88.7626 186.924 88.8569C186.659 88.9719 186.474 89.1823 186.329 89.4294C186.224 89.6067 186.07 89.7328 185.887 89.8227C185.819 89.8566 185.75 89.8282 185.681 89.8129C185.628 89.8013 185.581 89.8057 185.608 89.8881C185.694 90.1541 185.642 90.281 185.383 90.4454C185.351 90.3694 185.401 90.3107 185.422 90.2461C185.435 90.2078 185.434 90.1688 185.394 90.1461C185.361 90.1269 185.331 90.1455 185.303 90.1642C185.228 90.2151 185.191 90.2947 185.149 90.3707C185.117 90.4293 185.081 90.4898 185.002 90.4756C184.929 90.4619 184.924 90.3952 184.916 90.3358C184.837 90.3203 184.759 90.305 184.69 90.2916C184.647 90.1073 184.723 89.9313 184.721 89.7491C184.725 89.7424 184.729 89.7354 184.734 89.7289C184.864 89.7405 185.009 89.648 185.019 89.5237C185.026 89.4312 185.066 89.3867 185.14 89.3547C185.263 89.3469 185.377 89.3265 185.384 89.1663C185.386 89.1226 185.416 89.0991 185.451 89.0794C185.526 89.0678 185.615 89.1239 185.675 89.0329C185.683 89.0321 185.691 89.0313 185.699 89.0306C185.789 88.999 185.85 88.9435 185.905 88.8592C185.983 88.739 186.12 88.6809 186.258 88.6561C186.506 88.6114 186.758 88.578 186.93 88.3658C187.054 88.2149 187.234 88.1405 187.377 88.0161C187.393 88.0027 187.42 87.9869 187.435 87.9924C187.627 88.0596 187.796 87.9557 187.975 87.9246C188.07 87.9084 188.154 87.8854 188.212 87.8019C188.221 87.7887 188.243 87.768 188.247 87.7701C188.408 87.874 188.527 87.7171 188.668 87.7029C188.708 87.699 188.734 87.7199 188.735 87.7566C188.738 87.9396 188.826 87.8365 188.885 87.7993C188.93 87.7716 188.965 87.729 189.017 87.6817C188.935 87.6347 188.861 87.592 188.787 87.5504C188.758 87.5339 188.73 87.5155 188.73 87.4783C188.73 87.4315 188.764 87.4095 188.802 87.4036C188.948 87.3814 189.065 87.2578 189.243 87.3281C189.359 87.3739 189.504 87.3157 189.553 87.1596C189.595 87.0244 189.725 87.0038 189.829 86.9518C189.942 86.8947 190.074 86.8709 190.13 86.7283C190.16 86.6499 190.255 86.6499 190.325 86.6244C190.614 86.5184 190.903 86.4135 191.194 86.3119C191.293 86.277 191.399 86.2917 191.502 86.2876C191.566 86.285 191.636 86.294 191.681 86.2341C191.717 86.1876 191.764 86.1398 191.815 86.1847C191.88 86.2413 191.995 86.2542 192 86.3703C192.002 86.4189 191.999 86.468 191.997 86.5168C192.238 86.7063 192.291 87.0327 192.52 87.2312C192.579 87.2826 192.57 87.3483 192.531 87.4075C192.504 87.4473 192.469 87.4811 192.436 87.5165C192.39 87.5651 192.308 87.5974 192.336 87.6838C192.346 87.7181 192.366 87.7383 192.39 87.7538C192.412 87.7393 192.434 87.7259 192.454 87.7106C192.534 87.6708 192.612 87.7031 192.691 87.7132C192.734 87.7187 192.794 87.7507 192.816 87.7202C192.893 87.6189 193.021 87.599 193.105 87.5243C193.189 87.4491 193.241 87.447 193.313 87.5152C193.367 87.5672 193.42 87.6173 193.448 87.6938C193.479 87.7776 193.587 87.7843 193.63 87.7096C193.661 87.6566 193.724 87.6587 193.768 87.6111C193.749 87.539 193.638 87.5096 193.658 87.4126C193.672 87.3496 193.721 87.3124 193.751 87.2622C193.794 87.1906 193.865 87.187 193.937 87.1862C194.055 87.1855 194.163 87.1606 194.25 87.0741C194.419 87.0368 194.513 87.1661 194.609 87.2586C194.795 87.4354 194.981 87.5323 195.24 87.4147C195.336 87.371 195.429 87.447 195.5 87.5132C195.55 87.5592 195.539 87.6091 195.467 87.637C195.374 87.6732 195.284 87.7044 195.183 87.6621C195.146 87.646 195.104 87.6186 195.059 87.6566C195.078 87.7267 195.148 87.7471 195.192 87.7913C195.171 87.8236 195.15 87.8559 195.129 87.8879C195.048 87.9091 194.958 87.9435 194.987 88.0428C195.013 88.127 195.111 88.1071 195.184 88.1063C195.232 88.1058 195.283 88.044 195.325 88.1169C195.172 88.1402 195.028 88.2084 194.867 88.1994C194.793 88.1955 194.727 88.1875 194.667 88.1459C194.608 88.1043 194.554 88.0991 194.488 88.1415C194.384 88.2082 194.251 88.1678 194.192 88.0606C194.175 88.0324 194.168 87.9988 194.149 87.9737C194.115 87.9296 194.066 87.9257 194.016 87.943C193.988 87.9523 193.965 87.9717 193.97 88.0022C193.984 88.0839 194.058 88.0027 194.096 88.0536C193.995 88.1666 194.019 88.2578 194.162 88.3219C194.22 88.348 194.247 88.3888 194.247 88.4625C194.247 88.6395 194.313 88.6997 194.494 88.7029C194.673 88.7057 194.853 88.6964 195.031 88.7041C195.123 88.7085 195.233 88.7044 195.217 88.8634C195.214 88.8907 195.337 88.9417 195.407 88.9639C195.491 88.9905 195.576 89.0112 195.66 89.0422C195.675 89.0288 195.693 89.0179 195.718 89.0153C195.765 89.0148 195.811 89.0096 195.855 89.0293C195.95 89.0528 196.012 89.1409 196.108 89.1639C196.143 89.1955 196.197 89.2213 196.22 89.1763C196.302 89.0205 196.422 89.0978 196.53 89.1153C196.622 89.1303 196.709 89.1937 196.755 89.0337C196.778 88.951 196.893 88.9709 196.965 89.0166C197.008 89.0448 197.04 89.0817 197.088 89.0306C197.251 89.0303 197.406 89.0469 197.479 89.2273C197.494 89.2565 197.506 89.2864 197.522 89.3154C197.556 89.38 197.571 89.4873 197.668 89.4575C197.776 89.4247 197.938 89.4697 197.969 89.2924C198.122 89.3314 198.26 89.4252 198.425 89.4237C198.409 89.4516 198.398 89.4852 198.375 89.5064C198.317 89.5596 198.231 89.5979 198.28 89.7002C198.329 89.8067 198.414 89.8664 198.532 89.877C198.597 89.8824 198.664 89.8796 198.725 89.8967C198.834 89.9269 198.949 89.962 198.986 90.0897C199.035 90.2575 199.146 90.3079 199.308 90.2722C199.414 90.2373 199.515 90.2252 199.613 90.305C199.66 90.3438 199.727 90.3342 199.787 90.3221C199.977 90.2828 200.134 90.3384 200.244 90.496C200.317 90.6025 200.389 90.6079 200.483 90.5337C200.649 90.5379 200.805 90.5699 200.936 90.6787C200.996 90.7273 201.067 90.7247 201.136 90.7276C201.198 90.8043 201.289 90.8028 201.373 90.8082C201.466 90.8142 201.54 90.8467 201.592 90.9245C201.807 91.0083 202.02 91.0936 202.236 91.1755C202.264 91.1861 202.292 91.1969 202.318 91.2104C202.331 91.1768 202.342 91.1432 202.35 91.1075C202.358 91.0687 202.373 91.0341 202.397 91.0098C202.87 92.1289 203.216 93.3225 203.434 94.5902C203.434 94.5915 203.433 94.5912 203.433 94.591ZM203.555 95.6995C203.563 95.6749 203.571 95.6506 203.58 95.6261C203.597 95.7817 203.614 95.938 203.628 96.0957C203.48 95.9962 203.48 95.9303 203.555 95.6995Z" fill="#E5E5E5"/>
<path d="M75.9618 86.0791C82.5175 85.1606 115.172 84.7193 127.426 89.1602C139.681 93.6011 137.484 86.4012 136.318 85.2957C135.152 84.1902 129.287 83.547 124.452 76.5556C116.336 64.8203 108.027 58.7353 108.027 58.7353C108.027 58.7353 104.296 54.5045 87.1553 51.6226C67.5331 48.3236 55.2746 61.3053 55.2746 61.3053C42.7004 77.7932 41.2919 89.7298 75.8791 86.9944" fill="#DAD7C5"/>
<path d="M75.9618 86.0791C82.5175 85.1606 115.172 84.7193 127.426 89.1602C139.681 93.6011 137.484 86.4012 136.318 85.2957C135.152 84.1902 129.287 83.547 124.452 76.5556C116.336 64.8203 108.027 58.7353 108.027 58.7353C108.027 58.7353 104.296 54.5045 87.1553 51.6226C67.5331 48.3236 55.2746 61.3053 55.2746 61.3053C42.7004 77.7932 41.2919 89.7298 75.8791 86.9944" stroke="#818991" stroke-miterlimit="10"/>
<path d="M56.1082 60.6027C59.3961 60.5326 62.8517 61.0159 65.6906 62.9004C75.8915 52.7054 88.7127 51.4498 107.683 58.5781C107.683 58.5781 101.248 52.6648 81.6433 51.3481C65.4002 50.8601 56.1082 60.6027 56.1082 60.6027Z" fill="#E7E7E0"/>
<path d="M114.034 64.3392L113.606 64.9813C113.606 64.9813 116.626 66.149 124.831 78.3598C127.563 82.4257 135.5 84.9984 135.5 84.9984C135.5 84.9984 133.441 84.2449 130.442 82.5694C126.735 80.2341 124.633 77.3517 122.627 74.2873C120.036 70.3291 114.034 64.3392 114.034 64.3392Z" fill="#E7E7E0"/>
<path d="M107.31 59.6707C120.624 34.8679 94.0018 9.29103 103.058 7.10839C113.531 4.58402 133.376 32.9691 113.482 64.8959" fill="#DAD7C5"/>
<path d="M107.31 59.6707C120.624 34.8679 94.0017 9.29103 103.058 7.10839C113.531 4.58402 133.376 32.9691 113.482 64.8959" stroke="#818991" stroke-miterlimit="10"/>
<path d="M103.229 7.24021C132.008 26.1917 113.343 64.7309 113.343 64.7309C113.343 64.7309 128.223 45.0885 118.781 21.2375C111.494 4.7551 103.229 7.24021 103.229 7.24021Z" fill="#E7E7E0"/>
<path d="M37.8134 73.6131C37.8134 73.6131 18.9211 75.7541 20.5756 81.176C22.0403 85.976 39.1904 81.9312 39.1904 81.9312" fill="#DAD7C5"/>
<path d="M37.8134 73.6131C37.8134 73.6131 18.9211 75.7541 20.5756 81.176C22.0403 85.976 39.1904 81.9312 39.1904 81.9312" stroke="#818991" stroke-miterlimit="10"/>
<path d="M37.6156 73.5953C37.6156 73.5953 27.9549 75.2435 24.0146 77.1241C20.1279 78.9792 20.429 80.4973 20.8422 81.4112C21.0161 79.8786 20.5591 78.1916 30.2806 76.2038C36.2761 74.9779 37.3027 74.9653 37.3027 74.9653L37.6156 73.5953Z" fill="#E7E7E0"/>
<path d="M82.9321 78.2347C82.9321 78.2347 99.9843 86.8498 96.6286 91.369C93.658 95.3703 78.8759 85.5743 78.8759 85.5743" fill="#DAD7C5"/>
<path d="M82.9321 78.2347C82.9321 78.2347 99.9843 86.8498 96.6286 91.369C93.658 95.3703 78.8759 85.5743 78.8759 85.5743" stroke="#818991" stroke-miterlimit="10"/>
<path d="M78.9621 85.4357C78.9621 85.4357 86.2255 90.0513 89.3957 91.0258C92.5658 92.0003 94.0848 92.6936 95.9678 91.7464C97.631 90.9098 97.025 88.1505 94.6436 86.2861C95.5164 87.5035 95.8846 88.1702 95.5734 89.7061C94.8011 93.5175 79.8494 85.5562 78.9621 85.4357Z" fill="#E7E7E0"/>
<path d="M82.9963 78.1049C82.9963 78.1049 87.3696 80.4853 91.1361 83.0117C94.0686 84.9786 94.0055 85.2283 94.0055 85.2283C94.0055 85.2283 90.3947 80.2628 82.9963 78.1049Z" fill="#E7E7E0"/>
<path d="M65.8677 63.1233C61.4637 60.0183 56.3188 60.0963 50.8039 61.7627C49.5153 59.4331 48.3635 57.442 46.5446 56.3769C44.2272 58.3297 43.5206 61.5426 43.2274 65.0792C43.2274 65.0792 32.8144 75.2799 39.7489 82.5743C43.9485 88.6215 71.8194 91.8058 76.7507 86.2499C84.3718 78.9366 77.2853 69.8224 77.2853 69.8224C77.767 65.7441 77.6216 62.0575 76.3582 59.0698L69.9474 63.4918" fill="#DAD7C5"/>
<path d="M65.8677 63.1233C61.4637 60.0183 56.3188 60.0963 50.8039 61.7627C49.5153 59.4331 48.3635 57.442 46.5446 56.3769C44.2272 58.3297 43.5206 61.5426 43.2274 65.0792C43.2274 65.0792 32.8144 75.2799 39.7489 82.5743C43.9485 88.6215 71.8194 91.8058 76.7507 86.2499C84.3718 78.9366 77.2853 69.8224 77.2853 69.8224C77.767 65.7441 77.6216 62.0575 76.3582 59.0698L69.9475 63.4918" stroke="#818991" stroke-miterlimit="10"/>
<path d="M44.9731 65.0701C44.2127 62.3259 44.9113 59.4851 46.5632 56.5806C46.5632 56.5806 43.7471 58.394 43.3786 65.1565C43.3786 65.1565 35.2629 72.9509 38.2082 79.9807C40.7279 85.9951 50.6794 87.4051 50.6794 87.4051C50.6794 87.4051 39.9393 82.2698 44.0486 75.3061C39.8873 71.3632 44.9731 65.0701 44.9731 65.0701Z" fill="#E7E7E0"/>
<path d="M65.6682 63.2083C65.6682 63.2083 62.1957 60.7929 56.3989 60.9464C53.0698 61.0345 50.7574 61.9962 50.7574 61.9962C49.4263 59.4368 48.0454 57.4423 46.5631 56.5806C48.6205 58.9252 50.0051 61.3861 50.5179 63.9963C50.5179 63.9963 58.2251 59.7554 65.6682 63.2083Z" fill="#E7E7E0"/>
<path d="M70.0605 63.619L76.3042 59.331C77.6125 62.5948 77.6015 66.1949 77.1255 69.9133C76.9853 66.7894 76.7413 64.195 75.1631 62.8225C73.7367 62.3572 72.0583 62.5809 70.0605 63.619Z" fill="#E7E7E0"/>
<path d="M31.6368 77.8076C36.0691 76.5116 40.2016 77.3793 44.1003 79.9336" stroke="#818991" stroke-miterlimit="10"/>
<path d="M30.8367 82.6585C34.7379 80.0756 38.9436 79.6493 43.3868 80.9045" stroke="#818991" stroke-miterlimit="10"/>
<path d="M33.8593 86.0157C36.5821 83.5538 39.7777 82.7128 43.3413 83.1351" stroke="#818991" stroke-miterlimit="10"/>
<path d="M83.0894 82.1218C78.9611 80.0525 74.74 80.1657 70.4466 81.98" stroke="#818991" stroke-miterlimit="10"/>
<path d="M83.0073 87.0374C79.632 83.7972 75.5708 82.6242 70.9746 83.0629" stroke="#818991" stroke-miterlimit="10"/>
<path d="M79.432 89.7988C77.1944 86.8888 74.2013 85.4889 70.6197 85.2657" stroke="#818991" stroke-miterlimit="10"/>
<path d="M58.8855 74.4114C59.1568 76.312 60.4935 77.6654 61.8708 77.4342C63.2481 77.2031 64.1446 75.4744 63.8734 73.5737C63.6021 71.6731 62.2654 70.3197 60.8881 70.5509C59.5108 70.782 58.6143 72.5107 58.8855 74.4114Z" stroke="#818991" stroke-miterlimit="10"/>
<path d="M58.8855 74.4114C59.1568 76.312 60.4935 77.6654 61.8708 77.4342C63.2481 77.2031 64.1446 75.4744 63.8734 73.5737C63.6021 71.6731 62.2654 70.3197 60.8881 70.5509C59.5108 70.782 58.6143 72.5107 58.8855 74.4114Z" fill="white"/>
<path d="M61.6515 72.0311C60.8572 71.9447 60.1346 72.6003 60.0389 73.4944C59.9432 74.3884 60.5104 75.1845 61.3046 75.271C62.0989 75.3575 62.8215 74.7018 62.9172 73.8078C63.0129 72.9138 62.4457 72.1176 61.6515 72.0311Z" fill="#383636"/>
<path d="M58.8645 74.4308L63.9347 74.8193C63.9456 74.5399 63.9552 73.8722 63.9108 73.5768C63.6388 71.6768 62.3038 70.3223 60.9259 70.553C59.6347 70.7731 58.7448 72.6776 58.8645 74.4308Z" fill="#DAD7C5"/>
<path d="M58.8645 74.4308L63.9347 74.8193C63.9456 74.5399 63.9552 73.8722 63.9108 73.5768C63.6388 71.6768 62.3038 70.3223 60.9259 70.553C59.6347 70.7731 58.7448 72.6776 58.8645 74.4308Z" stroke="#818991" stroke-miterlimit="10"/>
<path d="M52.4168 73.7438C51.8094 75.565 50.2518 76.657 48.9382 76.1828C47.6246 75.7086 47.0524 73.8472 47.6598 72.0259C48.2673 70.2047 49.8248 69.1127 51.1384 69.5869C52.452 70.0611 53.0243 71.9225 52.4168 73.7438Z" stroke="#818991" stroke-miterlimit="10"/>
<path d="M52.4168 73.7438C51.8094 75.565 50.2518 76.657 48.9382 76.1828C47.6246 75.7086 47.0524 73.8472 47.6598 72.0259C48.2673 70.2047 49.8248 69.1127 51.1384 69.5869C52.452 70.0611 53.0243 71.9225 52.4168 73.7438Z" fill="white"/>
<path d="M50.1221 70.9062C50.919 70.9635 51.5124 71.738 51.4464 72.6347C51.3803 73.5314 50.6797 74.213 49.8828 74.1558C49.0859 74.0986 48.4925 73.3241 48.5586 72.4273C48.6246 71.5306 49.3252 70.849 50.1221 70.9062Z" fill="#383636"/>
<path d="M52.434 73.7667L47.3762 73.2403C47.4156 72.9635 47.5258 72.305 47.6224 72.0223C48.2305 70.2017 49.7865 69.1083 51.1008 69.5822C52.3317 70.0301 52.8659 72.0633 52.434 73.7667Z" fill="#DAD7C5"/>
<path d="M52.434 73.7667L47.3762 73.2403C47.4156 72.9635 47.5258 72.305 47.6224 72.0223C48.2305 70.2017 49.7865 69.1083 51.1008 69.5822C52.3317 70.0301 52.8659 72.0633 52.434 73.7667Z" stroke="#818991" stroke-miterlimit="10"/>
<path d="M54.3481 85.6698L53.9769 88.2209" stroke="#818991" stroke-miterlimit="10"/>
<path d="M53.0017 85.8473C53.6633 86.1404 54.3866 86.2348 55.1002 86.1245C56.1033 85.9694 57.5179 84.9313 57.6332 84.0232C57.6989 83.506 57.8184 82.1832 54.6801 81.8997C51.5418 81.6162 51.1682 82.2493 51.071 83.1681C50.9749 84.0742 52.0851 85.4411 53.0017 85.8473Z" stroke="#818991" stroke-miterlimit="10"/>
<path d="M53.0017 85.8473C53.6633 86.1404 54.3866 86.2348 55.1002 86.1245C56.1033 85.9694 57.5179 84.9313 57.6332 84.0232C57.6989 83.506 57.8184 82.1832 54.6801 81.8997C51.5418 81.6162 51.1682 82.2493 51.071 83.1681C50.9749 84.0742 52.0851 85.4411 53.0017 85.8473Z" fill="#383737"/>
<g opacity="0.5">
<path opacity="0.5" d="M51.2664 83.4748L51.5729 83.6895C52.1629 84.1029 52.9491 84.6087 53.47 84.0929C53.8466 83.7199 54.3386 83.4956 54.852 83.9837C55.0047 84.1289 55.1354 84.2614 55.2467 84.3814C55.7356 84.9094 56.5028 84.4179 57.1072 84.0324L57.499 83.7824C57.499 83.7824 57.7257 82.5222 55.4123 82.1786C53.0989 81.8349 51.0175 81.5369 51.2664 83.4748Z" fill="#E7E7E0"/>
</g>
</svg>
