<svg width="32" height="32" viewBox="0 0 32 32" fill="none" xmlns="http://www.w3.org/2000/svg">
<path d="M21.0423 2.59216C26.1552 2.59216 29.3683 5.78184 29.3683 10.9299V14.3541C29.3683 14.6236 29.2605 14.8819 29.0688 15.0714C28.8771 15.2609 28.6176 15.3657 28.3481 15.3626V15.3392C27.7846 15.3392 27.3279 14.8824 27.3279 14.3189V10.9299C27.3279 6.86071 25.0998 4.63262 21.0423 4.63262H11.0394C6.98193 4.63262 4.74212 6.87243 4.74212 10.9299V20.9328C4.74212 24.9786 6.98193 27.2184 11.0394 27.2184H21.0423C25.0998 27.2184 27.3279 24.9786 27.3279 20.9328C27.3279 20.3694 27.7846 19.9126 28.3481 19.9126C28.9116 19.9126 29.3683 20.3694 29.3683 20.9328C29.3683 26.0692 26.1786 29.2588 21.0423 29.2588H11.0394C5.89134 29.2588 2.70166 26.0692 2.70166 20.9328V10.9299C2.70166 5.78184 5.89134 2.59216 11.0394 2.59216H21.0423ZM16.1288 18.1184C16.4005 18.1244 16.6583 18.2399 16.8437 18.4385C17.0292 18.6372 17.1266 18.9023 17.1139 19.1738V20.4638L17.0957 20.6239C17.0549 20.8339 16.9487 21.0272 16.7903 21.175C16.5924 21.3598 16.3291 21.4583 16.0584 21.4488C15.4977 21.4234 15.0601 20.9545 15.0734 20.3934V19.1035C15.0826 18.8328 15.199 18.5769 15.3969 18.3922C15.5949 18.2074 15.8582 18.1089 16.1288 18.1184ZM16.0819 10.3905C16.1954 10.3904 16.307 10.4095 16.4122 10.446C16.832 10.5724 17.1373 10.9618 17.1373 11.4224L17.1363 14.6108L20.6084 14.6121C20.7254 14.6107 20.8404 14.6297 20.9488 14.6671C21.1069 14.7153 21.2534 14.8027 21.3726 14.9233C21.5621 15.115 21.667 15.3746 21.6639 15.6441C21.6639 16.1985 21.2213 16.6515 20.6671 16.6643H11.5788C11.4834 16.6621 11.3912 16.647 11.3039 16.6207C10.8579 16.5097 10.5287 16.1097 10.5233 15.6323C10.5203 15.3628 10.6251 15.1033 10.8146 14.9116C11.0041 14.7199 11.2624 14.6121 11.5319 14.6121H15.0499V11.4107C15.0626 10.848 15.5191 10.3966 16.0819 10.3905Z" fill="white"/>
</svg>
