<svg width="32" height="32" viewBox="0 0 32 32" fill="none" xmlns="http://www.w3.org/2000/svg">
<path d="M29.0075 27.4754L24.4243 22.9944L24.3169 22.8311C24.1171 22.6322 23.844 22.5202 23.559 22.5202C23.2739 22.5202 23.0008 22.6322 22.8011 22.8311C18.9061 26.4044 12.9043 26.5987 8.77609 23.2849C4.6479 19.9712 3.67431 14.1778 6.50099 9.74688C9.32768 5.31595 15.0775 3.62245 19.9372 5.78951C24.7969 7.95656 27.2585 13.3117 25.6894 18.3034C25.5764 18.6641 25.6688 19.0562 25.9317 19.3322C26.1947 19.6082 26.5882 19.7261 26.9641 19.6414C27.3401 19.5568 27.6413 19.2825 27.7543 18.9219C29.6299 12.9982 26.7971 6.6234 21.0882 3.9214C15.3794 1.21941 8.50787 3.00109 4.91882 8.11388C1.32978 13.2267 2.10032 20.1362 6.73199 24.3727C11.3637 28.6091 18.4665 28.9012 23.4456 25.0599L27.5036 29.0273C27.9227 29.4353 28.6003 29.4353 29.0194 29.0273C29.4381 28.6136 29.4381 27.9475 29.0194 27.5337L29.0075 27.4754Z" fill="#200E32"/>
</svg>
