<svg width="32" height="32" viewBox="0 0 32 32" fill="none" xmlns="http://www.w3.org/2000/svg">
<path d="M4.49738 9.55113C4.76974 9.49837 5.0524 9.55381 5.28278 9.70516C5.73788 10.0074 5.86983 10.6052 5.5826 11.0637L5.50725 11.2118C5.22248 11.864 5.47684 12.6354 6.12228 12.996C6.64452 13.3085 7.07438 13.7485 7.36954 14.2726C8.28863 15.9212 7.71824 17.9842 6.07431 18.9571C5.37922 19.3455 5.13769 20.2103 5.53463 20.8895L6.36214 22.2831C6.55043 22.6152 6.8693 22.8579 7.24505 22.9552C7.62081 23.0525 8.02094 22.9958 8.35296 22.7984C8.88831 22.4952 9.49704 22.3375 10.1159 22.3417C12.103 22.3417 13.7138 23.9147 13.7138 25.8551C13.7204 26.6396 14.3735 27.2722 15.1769 27.2721L15.1649 27.2956C15.5377 27.2956 15.8821 27.4898 16.0685 27.805C16.2549 28.1202 16.2549 28.5086 16.0685 28.8239C15.8821 29.1391 15.5377 29.3333 15.1649 29.3333C13.1779 29.3333 11.567 27.7603 11.567 25.8199C11.5703 25.573 11.5039 25.3299 11.3752 25.1172C10.9728 24.437 10.0835 24.2016 9.38434 24.5902L9.17121 24.6949C7.52193 25.4395 5.54197 24.8639 4.58719 23.3254L3.77168 21.9318C2.85259 20.2831 3.42298 18.2201 5.06691 17.2472C5.2848 17.1221 5.46641 16.9447 5.59459 16.7319C5.83512 16.4046 5.92156 15.9927 5.83229 15.5993C5.74303 15.2059 5.4865 14.8683 5.12687 14.6708L4.927 14.5436C3.438 13.5267 2.95085 11.5662 3.83164 9.98623L3.93378 9.85935C4.08257 9.70199 4.27949 9.59333 4.49738 9.55113ZM26.0021 12.9359C26.4748 12.7702 27.0128 12.9499 27.2777 13.3825C27.5709 13.8646 27.4101 14.4874 26.9179 14.7762C26.7 14.9013 26.5184 15.0787 26.3902 15.2915C26.1948 15.6173 26.1406 16.0058 26.2397 16.3708C26.3388 16.7357 26.5829 17.047 26.9179 17.2355C28.615 18.2289 29.1722 20.374 28.1652 22.0372L27.3497 23.4308L27.2194 23.626C26.1781 25.08 24.1705 25.5558 22.5525 24.6956C22.1039 24.4311 21.5435 24.4257 21.0895 24.6814C20.6356 24.9372 20.3599 25.4137 20.3698 25.9253C20.3124 26.4491 19.8598 26.8462 19.3204 26.8462C18.7811 26.8462 18.3285 26.4491 18.2711 25.9253C18.2968 24.6974 18.9773 23.5718 20.0658 22.9566C21.1543 22.3413 22.4927 22.3258 23.5959 22.9155C23.9274 23.1102 24.3255 23.1651 24.6993 23.0678C25.0723 22.9656 25.3904 22.7264 25.5867 22.4002L26.4022 21.0066C26.5971 20.6826 26.651 20.2958 26.5519 19.9327C26.4527 19.5696 26.2088 19.2604 25.8746 19.0742C25.3126 18.7398 24.8593 18.2565 24.5673 17.6806C23.6482 16.0319 24.2186 13.9689 25.8626 12.996L26.0021 12.9359ZM15.9924 11.6024C17.1873 11.5993 18.3343 12.0606 19.1803 12.8846C20.0263 13.7085 20.5018 14.8273 20.5018 15.9941L20.4943 16.2601C20.3956 17.9348 19.3268 19.4197 17.7264 20.0707C16.0418 20.756 14.1003 20.3822 12.8081 19.1237C11.516 17.8652 11.128 15.9703 11.8252 14.3234C12.5225 12.6765 14.1675 11.6024 15.9924 11.6024ZM15.9924 13.6636C14.6677 13.6636 13.5938 14.7122 13.5938 16.0058C13.5938 17.2994 14.6677 18.3481 15.9924 18.3481C17.3171 18.3481 18.391 17.2994 18.391 16.0058L18.383 15.8137C18.283 14.61 17.2509 13.6636 15.9924 13.6636ZM16.8199 2.66666C18.807 2.66666 20.4178 4.23966 20.4178 6.18005C20.4146 6.42703 20.4809 6.67012 20.6097 6.88273C20.8007 7.21189 21.1186 7.45279 21.4925 7.55178C21.8664 7.65077 22.2654 7.59962 22.6005 7.40974C24.2888 6.51223 26.4014 7.06923 27.3976 8.67456C27.673 9.16446 27.5037 9.77924 27.0139 10.0682C26.5161 10.3457 25.8826 10.1845 25.5867 9.70516L25.4925 9.56719C25.0543 8.99947 24.2422 8.82712 23.5959 9.18986C22.4946 9.77875 21.1586 9.76437 20.0708 9.15192C18.983 8.53947 18.3009 7.41755 18.2711 6.19176C18.2841 5.80788 18.1369 5.43529 17.8634 5.15932C17.5898 4.88335 17.2133 4.72764 16.8199 4.72785H15.1769C14.7825 4.72773 14.4048 4.88308 14.1294 5.15867C13.8539 5.43427 13.7041 5.80678 13.7138 6.19176C13.7027 7.42423 13.02 8.55757 11.9223 9.16595C10.8247 9.77433 9.47823 9.76559 8.38894 9.14301L8.34096 9.09617L8.22557 9.01516C7.82893 8.69482 7.72587 8.12956 8.00516 7.69081C8.30984 7.21218 8.95417 7.06537 9.44431 7.36289C9.66309 7.48756 9.91065 7.55605 10.1639 7.56199C10.552 7.57784 10.9307 7.44231 11.2164 7.18528C11.5021 6.92825 11.6714 6.57081 11.687 6.19176C11.6796 4.28725 13.2275 2.72378 15.1769 2.66666H16.8199Z" fill="#200E32"/>
</svg>
